<svg width="35" height="47" viewBox="0 0 35 47" fill="none" xmlns="http://www.w3.org/2000/svg">
<path d="M21.3687 0.227783L21.5284 0.271781L21.9543 0.975739L22.3802 1.50371L22.9126 2.07567L23.5514 2.69164L23.924 2.99962L24.2967 3.3516L25.042 3.96756L25.4679 4.27555L25.8938 4.62752L26.3197 4.93551L27.3844 5.81546L27.8103 6.12344L28.2894 6.56341L29.3542 7.44336L29.7801 7.75134L30.5786 8.4553L30.9513 8.76328L31.3239 9.11526L31.8563 9.59923L32.6548 10.4792L33.2404 11.2271L33.7728 12.1511L34.039 12.899L34.1455 13.471V14.043L33.9325 14.9229L33.6131 15.7149L33.0807 16.6388L32.6548 17.1668L32.016 17.8707L31.4836 18.3547L31.111 18.7067L30.6318 19.1027L30.206 19.4107L29.3542 19.9826L28.3959 20.5106L27.3312 20.9946L25.6276 21.5665L23.4982 22.1825L22.8593 22.4465L22.6464 22.6225V22.8425L23.2852 22.9744L23.924 23.2384L24.4032 23.5464L24.7758 23.8544L25.255 24.3384L25.7873 24.9103L26.3729 25.4823L26.9585 26.0983L27.6506 26.8022L28.7153 27.9022L29.4074 28.6941L29.7801 29.2661L29.8333 29.5741L29.6736 30.014L29.3542 30.41L29.2477 30.454L28.7153 30.102L28.1297 29.7061L27.8635 29.5741V29.97L28.2362 30.586L28.6621 31.07L29.088 31.466V31.6859L28.9283 31.7299L27.2779 31.8179L26.5326 31.9059L25.5744 32.1699L25.042 32.4339L24.9355 32.7419L24.8291 33.2698L24.5629 33.7978L24.2435 34.1498L24.0305 34.3698L23.4982 34.6338L22.8593 34.8538L22.6464 35.0297L22.5931 35.2497L22.6996 35.4697L22.8061 36.7896L23.019 38.1096L23.3917 39.6935L24.1902 42.2893L24.4564 42.9493L24.7226 43.1693L25.3082 43.5652L25.8938 43.9172L26.5326 44.4012L27.0118 44.8412L27.3312 45.2811L27.5441 45.7651L27.4909 46.0731L27.3844 46.1611L24.7758 46.2051H23.8176L23.2852 46.1611L23.1787 46.0731L23.1255 45.8971V45.2371L23.3384 44.4452V44.1372L22.5931 43.3013L22.2205 42.8613L21.7414 42.2453L21.1558 41.5414L20.4104 40.7054L19.8781 40.0894L19.0263 39.1655L18.3875 38.4615L17.9083 37.9776L17.3227 37.6256L16.8968 37.4496L16.8436 37.8016L16.9501 38.2416L17.0565 39.7375L17.2695 40.9254L17.5889 41.9373L18.1213 43.2133L18.6536 44.3572L19.186 45.4131L19.2925 45.6771V45.8531L18.8666 45.8971H14.5544L13.5962 45.8531V45.5891L13.8091 45.3251L14.3947 44.9732L15.14 44.6652L16.6307 44.3132L16.5774 44.0492L15.9386 43.1253L15.0868 41.6734L14.5012 40.6174L13.7559 39.2095L13.1703 37.9336L12.7444 36.7896L12.2653 35.2057L11.9991 33.9738L11.8926 33.0939L11.8394 30.63L11.7329 30.058L11.4667 29.838L11.307 29.794L10.5085 30.19L10.402 30.234H9.92286L9.5502 30.058L9.07107 29.6621L8.69842 29.1781L8.59194 29.0021L8.48547 28.4301L8.379 28.3421L7.7934 28.4301L7.47398 28.5621L6.62219 29.0901L6.24954 29.1341L6.14307 29.0461L5.71717 27.4182L5.29128 26.3622L4.86539 25.6583L4.27979 24.9103L3.96037 24.6903H2.46975L1.88415 24.6024L1.35178 24.3824L0.925892 24.0744L0.606473 23.6344L0.5 23.3264V22.6665L0.659709 22.2265L0.925892 21.8745L1.40502 21.4785L1.83091 21.2585L2.20357 21.1706H3.00211L3.74743 21.3465L4.33303 21.6545L4.70568 22.0065L4.91863 22.4905V23.0184L4.75892 23.5904L4.81215 23.8104L5.34452 24.2064L5.93012 24.5584L6.62219 25.0423L7.15456 25.3943L7.84663 25.8783L8.43224 26.2743L9.12431 26.7582L9.33726 26.9782L9.39049 27.3302L9.44373 27.5942L9.49696 27.6822L10.1358 27.4182L10.7214 27.3742L10.9876 27.1982L11.6797 26.4502L13.0638 24.8663L13.7559 23.8984L14.448 23.1064L14.7674 22.5345L14.8206 22.2705L14.6077 22.0945L13.8091 21.8305L11.9991 21.3025L10.6682 20.7746L9.44373 20.1146L8.69842 19.6746L7.89987 19.1027L7.31427 18.6187L6.51572 17.7388L6.03659 17.1228L5.45099 16.1988L5.18481 15.5389L5.0251 15.0109L4.91863 14.175V13.251L5.07834 12.3711L5.45099 11.4471L6.03659 10.5232L6.56896 9.90722L7.26103 9.24725L7.68692 8.89527L8.11282 8.58729L8.80489 8.10332L9.70991 7.53135L10.5085 7.04738L11.3602 6.56341L12.1588 6.07944L13.0638 5.59547L14.235 4.9795L15.4594 4.31954L17.2163 3.3516L18.281 2.73564L18.8133 2.38366L19.5587 1.85569L20.6766 0.931742L21.1558 0.44777L21.3687 0.227783Z" fill="#3E1F38"/>
<path d="M2.20357 21.1707H3.00211L3.74743 21.3466L4.33303 21.6546L4.70568 22.0066L4.91863 22.4906V23.0185L4.75892 23.5905L4.81215 23.8105L5.34452 24.2065L5.93012 24.5585L6.62219 25.0424L7.15456 25.3944L7.84663 25.8784L8.43224 26.2744L9.12431 26.7583L9.33726 26.9783L9.39049 27.3303L9.44373 27.5943L9.49696 27.6823L10.1358 27.4183L10.7214 27.3743L10.9876 27.1983L11.6797 26.4503L13.0638 24.8664L13.7559 23.8985L14.448 23.1065L14.7674 22.5346L14.8206 22.2706L14.6077 22.0946V22.0066L15.2465 22.0946L16.9501 22.3146L18.3875 22.4026H20.7831L22.114 22.3146L23.3917 22.1386V22.2266L22.8593 22.4466L22.6464 22.6226V22.8426L23.2852 22.9745L23.924 23.2385L24.4032 23.5465L24.7758 23.8545L25.255 24.3385L25.7873 24.9104L26.3729 25.4824L26.9585 26.0984L27.6506 26.8023L28.7153 27.9023L29.4074 28.6942L29.7801 29.2662L29.8333 29.5742L29.6736 30.0141L29.3542 30.4101L29.2477 30.4541L28.7153 30.1021L28.1297 29.7062L27.8635 29.5742V29.9701L28.2362 30.5861L28.6621 31.0701L29.088 31.4661V31.686L28.9283 31.73L27.2779 31.818L26.5326 31.906L25.5744 32.17L25.042 32.434L24.9355 32.742L24.8291 33.2699L24.5629 33.7979L24.2435 34.1499L24.0305 34.3699L23.4982 34.6339L22.8593 34.8539L22.6464 35.0298L22.5931 35.2498L22.6996 35.4698L22.8061 36.7897L23.019 38.1097L23.3917 39.6936L24.1902 42.2894L24.4564 42.9494L24.7226 43.1694L25.3082 43.5653L25.8938 43.9173L26.5326 44.4013L27.0118 44.8413L27.3312 45.2812L27.5441 45.7652L27.4909 46.0732L27.3844 46.1612L24.7758 46.2052H23.8176L23.2852 46.1612L23.1787 46.0732L23.1255 45.8972V45.2372L23.3384 44.4453V44.1373L22.5931 43.3014L22.2205 42.8614L21.7414 42.2454L21.1558 41.5415L20.4104 40.7055L19.8781 40.0895L19.0263 39.1656L18.3875 38.4616L17.9083 37.9777L17.3227 37.6257L16.8968 37.4497L16.8436 37.8017L16.9501 38.2417L17.0565 39.7376L17.2695 40.9255L17.5889 41.9374L18.1213 43.2134L18.6536 44.3573L19.186 45.4132L19.2925 45.6772V45.8532L18.8666 45.8972H14.5544L13.5962 45.8532V45.5892L13.8091 45.3252L14.3947 44.9733L15.14 44.6653L16.6307 44.3133L16.5774 44.0493L15.9386 43.1254L15.0868 41.6735L14.5012 40.6175L13.7559 39.2096L13.1703 37.9337L12.7444 36.7897L12.2653 35.2058L11.9991 33.9739L11.8926 33.094L11.8394 30.6301L11.7329 30.0581L11.4667 29.8381L11.307 29.7941L10.5085 30.1901L10.402 30.2341H9.92286L9.5502 30.0581L9.07107 29.6622L8.69842 29.1782L8.59194 29.0022L8.48547 28.4302L8.379 28.3422L7.7934 28.4302L7.47398 28.5622L6.62219 29.0902L6.24954 29.1342L6.14307 29.0462L5.71717 27.4183L5.29128 26.3623L4.86539 25.6584L4.27979 24.9104L3.96037 24.6904H2.46975L1.88415 24.6025L1.35178 24.3825L0.925892 24.0745L0.606473 23.6345L0.5 23.3265V22.6666L0.659709 22.2266L0.925892 21.8746L1.40502 21.4786L1.83091 21.2586L2.20357 21.1707Z" fill="#060304"/>
<path d="M21.794 8.10303H23.6573L24.4559 8.19102L25.5738 8.45501L26.5853 8.85098L27.1709 9.24696L27.7033 9.68693L28.076 10.1709L28.2889 10.5669L28.5018 11.3588V12.1508L28.3954 12.8108L28.1824 13.4707L27.8098 14.2187L27.1709 15.1426L26.5321 15.8906L25.84 16.5945L25.7868 16.6385H25.3609L23.0717 16.3305L20.7826 16.0666L17.9078 15.8026L14.9265 15.5826L12.7438 15.4946H7.04754L6.8346 15.2306L6.46194 14.2627L6.35547 13.6907V12.7228L6.51518 11.8868L6.88783 11.0509L7.31373 10.4349L7.68638 10.0389L8.48493 9.37895L9.33671 8.93898L10.1885 8.67499L10.8806 8.543L11.3597 8.499H11.8388L12.5309 8.67499L13.3827 9.20296L13.9683 9.68693L14.3942 10.1269L15.033 10.8309L15.5121 11.4908H15.6719L16.0977 11.0509L16.6833 10.5229L17.4819 9.86292L18.2272 9.37895L19.0258 8.93898L19.9308 8.543L20.7826 8.27902L21.2617 8.14702L21.794 8.10303Z" fill="#F9C68F"/>
<path d="M21.369 0.227783L21.5287 0.271781L21.9546 0.975739L22.3805 1.50371L22.9129 2.07567L23.5517 2.69164L23.9244 2.99962L24.297 3.3516L25.0423 3.96756L25.4682 4.27555L25.8941 4.62752L26.32 4.93551L27.3847 5.81545L27.8106 6.12344L28.2898 6.56341L29.3545 7.44336L29.7804 7.75134L30.5789 8.4553L30.9516 8.76328L31.3242 9.11526L31.8566 9.59923L32.6552 10.4792L33.2408 11.2271L33.7731 12.1511L34.0393 12.899L34.1458 13.471V14.043L33.9328 14.9229L33.6134 15.7149L33.081 16.6388L32.9213 16.7708L33.0278 16.2428L33.3472 15.4949L33.4537 15.0549H33.5602L33.6134 14.6149V13.735L33.294 12.855L33.0278 12.2831L32.6552 11.7111L32.389 11.6231L31.9098 11.7551L31.4307 11.8431H30.6322L29.9933 11.9311L29.6739 12.2391L29.4077 12.1511L29.3545 12.0631L29.248 11.3591L29.0883 10.6992L28.8221 10.0832L28.3962 9.46724L27.9171 9.02727L27.3847 8.63129L26.533 8.19132L26.0006 7.97133L25.0956 7.75134L24.5632 7.61935L23.0193 7.53135H21.9546L21.0496 7.66335L20.1446 7.88333L18.9201 8.3673L18.1748 8.76328L17.3763 9.24725L17.2166 9.29125V9.37925L16.9504 9.55523H16.8439V9.64323L16.418 9.95121L15.6727 10.5672L15.513 10.5232V10.3472H15.4065L15.0339 9.90721L14.608 9.46724L14.1289 9.02727L13.6497 8.63129L13.2771 8.4113L13.2238 8.32331L13.0109 8.27931L12.9577 8.19132L12.2123 7.97133L11.8929 7.92733H10.6685L9.65699 8.14732L8.80521 8.4993L8.0599 8.89527L7.90019 8.93927V9.02727L7.4743 9.33525L6.8887 9.86322L6.35633 10.5672L6.03691 11.1391L5.66426 12.0191L5.50455 12.899L5.45131 13.471L5.39807 13.735L5.34484 14.6149L5.45131 15.7149L5.18513 15.5389L5.02542 15.0109L4.91895 14.175V13.251L5.07865 12.3711L5.45131 11.4471L6.03691 10.5232L6.56928 9.90721L7.26135 9.24725L7.68724 8.89527L8.11313 8.58729L8.80521 8.10332L9.71023 7.53135L10.5088 7.04738L11.3606 6.56341L12.1591 6.07944L13.0641 5.59547L14.2353 4.9795L15.4598 4.31954L17.2166 3.3516L18.2813 2.73564L18.8137 2.38366L19.559 1.85569L20.6769 0.931742L21.1561 0.44777L21.369 0.227783Z" fill="#B485BA"/>
<path d="M11.8926 32.6101H13.0638L14.6076 32.6981L17.3227 32.9621L20.0378 33.3141L20.4104 33.4021L20.8363 34.194L21.209 34.59L21.6881 34.898L22.2205 35.074H22.5931L22.6996 35.294L22.8061 36.6139L23.019 37.9338L23.3917 39.5177L24.1902 42.1136L24.4564 42.7735L24.7226 42.9935L25.3082 43.3895L25.8938 43.7415L26.5326 44.2254L27.0117 44.6654L27.3312 45.1054L27.5441 45.5893L27.4909 45.8973L27.3844 45.9853L24.7758 46.0293H23.8176L23.2852 45.9853L23.1787 45.8973L23.1255 45.7213V45.0614L23.3384 44.2694V43.9614L22.5931 43.1255L22.2205 42.6855L21.7413 42.0696L21.1557 41.3656L20.4104 40.5296L19.8781 39.9137L19.0263 38.9897L18.3874 38.2858L17.9083 37.8018L17.3227 37.4498L16.8968 37.2738L16.8436 37.6258L16.95 38.0658L17.0565 39.5617L17.2695 40.7496L17.5889 41.7616L18.1212 43.0375L18.6536 44.1814L19.186 45.2374L19.2924 45.5014V45.6773L18.8666 45.7213H14.5544L13.5961 45.6773V45.4134L13.8091 45.1494L14.3947 44.7974L15.14 44.4894L16.6306 44.1374L16.5774 43.8734L15.9386 42.9495L15.0868 41.4976L14.5012 40.4416L13.7559 39.0337L13.1703 37.7578L12.7444 36.6139L12.2652 35.03L11.9991 33.798L11.8926 32.9181V32.6101Z" fill="#D6A172"/>
<path d="M8.53892 15.627H10.6684L10.7749 15.7149L10.9346 15.627H12.159L13.4367 15.671L13.5964 15.7149L15.1935 15.8029L15.2467 15.8469V16.7709L15.3532 16.0229L15.5129 15.9789V15.8469L17.0035 15.8909L18.9733 16.0669L19.5056 16.1549L20.5171 16.2429L20.6768 16.2869V16.4189H20.7833V16.3309L21.4754 16.3749L23.2854 16.5949L24.8825 16.7269L25.4681 16.8149V16.9469L25.2552 17.1229L25.1487 17.3429L25.3084 17.5628L25.2552 17.7828L24.776 18.2228L24.3502 18.5308L23.8178 18.8828L23.0192 19.3227L22.2739 19.6747L21.0495 20.2027L19.9848 20.5547L18.92 20.8626L18.015 21.0386L16.897 21.2146L16.4179 21.2586H14.8741L14.5546 21.2146V21.1266H14.0223L13.8093 21.0386L13.1705 20.9066L12.4784 20.6867V20.5987L12.2122 20.5107L11.3605 20.1587L10.9346 19.9387L10.7749 19.8947V19.8067L10.5087 19.7187L9.92307 19.3667L9.23099 18.8828L8.8051 18.4428L8.75187 18.2668L9.01805 18.2228L9.12452 18.2668L9.07128 18.0468L8.59216 17.6068L8.2195 17.2109V17.1229H8.11303V16.9909L7.95332 16.9469V16.8149H7.84685L7.42095 16.2429L7.20801 15.9349V15.7149L7.31448 15.671L8.53892 15.627Z" fill="#AD7BA3"/>
<path d="M21.636 8.71948H23.6589L24.351 8.85147L24.7237 8.98347L24.9899 9.46744L25.256 9.86342L25.3093 10.1274L25.256 10.1714L25.2028 10.9194L25.1496 11.0513H25.0431L24.8834 11.5353L24.6704 11.9753L24.2445 12.4153L24.1381 12.6353L23.8719 12.8552L23.4992 13.2512L23.3395 13.3832L23.0733 13.7352L22.8604 13.7792V13.3832L22.8072 13.4712H22.7007L22.7539 13.2512L22.8604 12.9872V12.3713L22.6475 11.9753L22.2748 11.7113L21.8489 11.5793H21.2633L20.6777 11.7553L20.3583 11.9313L20.0921 12.1513L19.7727 12.6353L19.7194 12.8552V13.3832L19.8792 13.6912L20.0921 13.9552L20.8374 14.3951L21.0504 14.4831H21.8489L22.2216 14.4391L22.1683 14.5711L21.5827 14.7031L21.1568 14.7471L20.6245 14.7031H19.2936V14.7471L18.2821 14.7031L17.59 14.5271L16.685 14.2632L16.4188 14.2192L16.5253 14.1312L15.9397 13.9552L15.1411 13.8672L13.2246 13.7792H12.5325L12.0534 13.9112H11.8937L11.9469 13.7352L12.1599 13.5152L11.6807 13.6912L11.5743 13.6472L11.8937 13.4712L12.3196 12.9872L12.3728 12.8552V12.1953L12.1599 11.7553L11.7872 11.3593L11.3081 11.0953L10.6692 10.9634L10.0836 11.0073L9.55128 11.2273L9.2851 11.5793L9.17862 11.9313L9.23186 12.3713L9.44481 12.8992L9.65775 13.0752L9.76422 13.2952L10.2434 13.6032L10.616 13.7352V13.8232L10.8822 13.9112L11.2548 13.9552L11.6275 13.8672H11.8404L11.7872 14.0872L11.5743 14.2632L11.4678 14.3072H11.0951L10.829 14.1312L10.5095 14.2632L10.2434 14.0432L9.44481 13.9992L8.96568 13.8232L8.43331 13.5592L8.2736 13.2512L7.95418 12.4593L7.688 11.9753L7.63477 11.5353L7.74124 11.0073L7.90095 10.5674L8.06066 10.3474H8.16713L8.2736 10.1714L8.75273 9.81942L9.39157 9.51144L9.97717 9.33545L10.5095 9.24745L11.2548 9.20345L12.1599 9.29145L12.6922 9.46744L13.4375 9.95141L13.544 10.1274H13.6505V10.2154L13.8634 10.3034L14.1829 10.4794L14.662 10.9634L14.8749 11.0513L14.9814 10.9194L15.1411 10.9634L15.5138 11.4913H15.6735L16.0994 11.0513L16.685 10.5234L17.2173 10.0834H17.3238L17.2706 10.3034L17.0044 10.3914L16.9511 10.5234L16.5785 10.7434L17.0576 10.4794L17.6432 10.0834L18.8677 9.46744L19.7727 9.15946L20.8906 8.85147L21.636 8.71948Z" fill="#FDD7AD"/>
<path d="M21.9545 7.4873H23.0193L24.5631 7.5753L25.0955 7.70729L26.107 7.97128L26.9055 8.32326L27.4911 8.67524L28.0235 9.07121L28.5026 9.51119L28.9285 10.1711L29.1947 10.8311L29.3544 11.5791L29.4076 12.063L29.5674 12.195L29.6738 12.239L29.7803 12.063L29.9932 11.887L30.6853 11.7991H31.4306L32.3356 11.6231L32.4954 11.5791L32.7615 11.7551L33.1874 12.503L33.5069 13.251L33.6666 13.7349V14.6149L33.5601 15.0549H33.5069L33.4536 13.9549L33.081 13.6029L32.7615 13.515L32.1759 13.471L32.1227 13.515H31.3242V13.6029L31.058 13.7349H30.6853L30.0997 13.8669L29.4609 14.0869H29.0882L28.7688 14.2189L28.4494 14.5269L27.917 15.3188L27.5444 15.8028L27.012 16.3748L26.4796 16.8588L26.107 17.2107L25.3084 17.8707L24.8825 18.1347L24.989 17.9587L25.2552 17.7387L25.202 17.4307L25.0955 17.3427L25.2552 17.0787L25.4681 16.9028V16.8588L24.8825 16.7708L22.9128 16.5948L20.7833 16.3308V16.4188L20.6236 16.4628L20.6769 16.2868L19.5057 16.1988L18.6006 16.0668L17.0035 15.9348L15.5129 15.8468V15.9788L15.4064 16.0228L15.2467 16.9467H15.1935V15.8468L13.5964 15.7588L13.4367 15.7148L12.159 15.6708H10.9346L10.7216 15.7588L10.6684 15.6708H8.53894L7.20803 15.7148L7.36774 16.1108L7.84687 16.7268V16.8148H7.95334L8.00658 16.9467L8.11305 16.9907V17.1227H8.21952L8.75189 17.6947L9.17778 18.1347L9.12454 18.3107L8.80513 18.2667L8.9116 18.5307L9.33749 18.9266L9.92309 19.3226L10.5087 19.6746L10.7749 19.8066V19.8946L11.0411 19.9386L11.5202 20.2026L12.2655 20.5105L12.1058 20.5545L10.8813 20.0266L9.76338 19.4106L9.4972 19.4986L8.80513 19.5866L8.37923 19.3226L8.11305 19.1466L7.90011 19.1026L7.3145 18.6187L6.51596 17.7387L6.03683 17.1227L5.45123 16.1988L5.23828 15.7148V15.4508L5.39799 15.5828L5.29152 14.3949L5.34475 13.6029L5.39799 13.471L5.50446 12.547L5.66417 11.887L6.09006 10.9191L6.51596 10.2591L6.94185 9.77517L7.52745 9.2472L7.79363 9.02721H7.90011V8.93922L8.69865 8.49925L9.4972 8.14727L10.4022 7.92728L10.6684 7.88328H11.8928L12.372 7.97128L13.0108 8.19126V8.27926L13.277 8.32326L13.5432 8.54324L13.9691 8.85122L14.5547 9.3352L15.1403 9.95116L15.4064 10.2591V10.3471H15.5129V10.5231L15.7791 10.4791L16.1518 10.1271L16.7374 9.64318H16.8438V9.55518L17.11 9.37919H17.2165V9.2912L18.1747 8.71923L18.7603 8.41125L19.8783 7.92728L20.8366 7.66329L21.5819 7.5313L21.9545 7.4873ZM21.7948 8.10327L21.2625 8.14727L20.1445 8.45525L19.2927 8.80723L18.4409 9.2472L17.6956 9.73117L17.0568 10.2151L16.2582 10.8751L15.8323 11.3151L15.5662 11.5351L15.1935 11.0511L14.7144 10.4791L14.2885 10.0392L13.8094 9.55518L13.277 9.11521L12.4252 8.63124L11.8396 8.49925H11.3605L10.5619 8.58724L9.44396 8.89522L8.80513 9.2032L8.326 9.51119L7.52745 10.1711L7.10156 10.7431L6.7289 11.3591L6.46272 12.107L6.35625 12.723V13.6909L6.51596 14.4389L6.88861 15.3188L7.04832 15.4948H12.7446L14.9273 15.5828L18.4942 15.8468L21.5819 16.1548L24.4567 16.5068L25.3617 16.6388H25.7876L26.2135 16.2428L26.9588 15.4068L27.5976 14.5269L27.9703 13.9109L28.2897 13.207L28.4494 12.591L28.5026 12.151V11.3591L28.2897 10.5671L27.917 9.95116L27.5444 9.55518L27.012 9.11521L26.4796 8.80723L25.5746 8.45525L24.4567 8.19126L23.6581 8.10327H21.7948Z" fill="#41213B"/>
<path d="M24.4565 23.6345L24.7759 23.8545L25.255 24.3385L25.7874 24.9104L26.373 25.4824L26.9586 26.0984L27.6506 26.8023L28.7154 27.9023L29.4074 28.6942L29.7801 29.2662L29.8333 29.5742L29.6736 30.0141L29.3542 30.4101L29.2477 30.4541L28.7154 30.1021L28.1298 29.5302L27.3312 28.8702L26.9586 28.5182L26.5327 28.2103L25.9471 27.7703L25.5212 27.4623L24.9888 27.1103L23.8709 26.6703L24.0306 27.1103L24.0838 27.1983V27.4623L24.0306 27.5063L23.9241 28.2543L23.1255 30.1901L22.9126 30.7181L22.2738 30.8941H21.9011L20.517 30.6301L20.4637 30.5421L18.8134 30.2781L17.3228 30.1021L17.2695 30.0141L17.9616 28.6062L18.2278 28.0783L18.6537 27.3743L19.2393 26.4504L19.8781 25.6144L20.3572 25.1304L20.6234 25.0424V24.9544L20.7831 24.8664L21.9011 24.6465L22.4867 24.5585L23.1255 24.2945L23.6579 24.1185L24.137 23.9425H24.2967L24.4032 23.7225L24.4565 23.6345Z" fill="#F9C68F"/>
<path d="M21.4756 1.32788H21.5821V1.41588L21.8483 1.50387L22.1145 1.67986V1.76785H22.2209L22.4339 1.98784L22.8065 2.38382L23.1259 2.6918L23.9777 3.39576V3.48375H24.0842V3.57175H24.1907V3.65974L24.4036 3.74774L24.8295 4.09972L25.2022 4.4517L25.4683 4.67168V4.75968H25.5748L25.9475 5.11166L26.0007 5.24365L26.2137 5.33165V5.41964L26.4266 5.50764L27.1187 6.0356L27.4913 6.29959L27.864 6.65157L28.3431 7.09154L28.7158 7.35553V7.44352L28.9287 7.53152L29.8337 8.27947L30.2064 8.63145L31.3776 9.59939L31.9632 10.2154L32.4956 10.8753L33.2941 11.9753L33.72 13.2512L33.7732 13.5592V14.4391L33.5603 15.3631L33.3473 16.067L33.1876 16.463L32.9747 16.771L32.9215 16.639L33.0812 16.111L33.3473 15.495L33.4538 15.0551H33.5603L33.6135 14.6151V13.7352L33.2941 12.8552L33.0279 12.2832L32.6553 11.7113L32.3891 11.6233L31.91 11.7553L31.4308 11.8433H30.6323L29.9935 11.9313L29.674 12.2392L29.4078 12.1512L29.3546 12.0632L29.2481 11.3593L29.0884 10.6993L28.8222 10.0834L28.3964 9.4674L27.9172 9.02743L27.3849 8.63145L26.5331 8.19148L26.0007 7.97149L25.0957 7.7515L24.5633 7.61951L23.0195 7.53152H21.9547L21.4224 7.57551V7.48752L21.6353 7.44352L21.4224 7.17954L21.5821 6.69557L21.6886 6.43158L21.795 6.0796L21.7418 5.55163V4.49569L21.5821 4.3637V4.01172L21.6353 3.87973L21.5821 3.70374H21.4756L21.5289 3.52775L21.5821 3.30776V2.6918L21.6353 2.60381V2.33982L21.3691 1.81185V1.41588L21.4756 1.32788Z" fill="#9C689E"/>
<path d="M2.20357 21.1707H3.00211L3.74743 21.3466L4.33303 21.6546L4.70568 22.0066L4.91863 22.4906V23.0185L4.75892 23.5905L4.81215 23.8105L5.34452 24.2065L5.93012 24.5585L6.6222 25.0424L7.15456 25.3944L7.84663 25.8784L8.43224 26.2744L9.12431 26.7583L9.33726 26.9783L9.39049 27.3303L9.44373 27.5943L9.49697 27.6823L10.1358 27.4183L10.7214 27.3743L10.9876 27.1983L11.6797 26.4503L12.3717 25.6584L12.425 25.7464L12.1056 26.4503L11.7329 27.5503L11.4135 28.7382L11.2005 29.5742L10.9876 29.8381L10.7214 30.1021L10.402 30.2341H9.92286L9.5502 30.0581L9.07107 29.6622L8.69842 29.1782L8.59194 29.0022L8.48547 28.4302L8.379 28.3422L7.7934 28.4302L7.47398 28.5622L6.6222 29.0902L6.24954 29.1342L6.14307 29.0462L5.71718 27.4183L5.29128 26.3623L4.86539 25.6584L4.27979 24.9104L3.96037 24.6904H2.46975L1.88415 24.6025L1.35178 24.3825L0.925892 24.0745L0.606473 23.6345L0.5 23.3265V22.6666L0.659709 22.2266L0.925892 21.8746L1.40502 21.4786L1.83091 21.2586L2.20357 21.1707Z" fill="#3F1F39"/>
<path d="M21.7938 8.10303H23.6571L24.4557 8.19102L25.5736 8.45501L26.5851 8.85098L27.1707 9.24696L27.7031 9.68693L28.0758 10.1709L28.2887 10.5669L28.5016 11.3588V12.1508L28.3952 12.8108L28.1822 13.4707L27.8096 14.2187L27.1707 15.1426L26.5319 15.8906L25.8398 16.5945L25.7866 16.6385H25.3607L23.0715 16.3305L20.7824 16.0666V16.0226H21.0485V15.8906L20.8356 15.8026V15.6266L21.368 15.4066L21.9536 15.1866L22.273 15.0986L22.8053 14.8786L22.9651 14.8346L23.0715 14.6586L23.2312 14.6146L23.3377 14.4387L23.6039 14.3507L23.7104 14.1747L23.9765 13.9107H24.083L24.1895 13.6907H24.296L24.4024 13.5147L24.8816 12.9867L25.0413 12.7228H25.1477L25.3075 12.2828L25.5204 11.8868L25.6801 11.5788L25.8398 11.1388L25.9463 10.8749L25.9995 10.4789H26.106L26.1592 9.64294L25.8398 9.33496L25.201 9.02697L24.2427 8.76299L23.3909 8.67499H22.7521L21.6341 8.76299L20.7291 8.93898L19.4514 9.29096L18.5997 9.64294L17.4817 10.2149L17.0026 10.5669L16.6299 10.7869L16.5234 10.7429L16.9493 10.4789L17.109 10.3469L17.2687 10.2589V10.0389L17.8011 9.64294L18.7594 9.07097L19.6112 8.67499L20.3032 8.41101L21.2615 8.14702L21.7938 8.10303Z" fill="#D5A071"/>
<path d="M15.2999 22.8428L15.992 22.8868L18.015 23.0628H21.5286L21.5818 23.2388L21.2092 23.5027L20.8365 23.9427H20.7301L20.6236 24.1627L20.4639 24.3387H20.3574L20.2509 24.6027L19.7186 25.2186L19.2394 25.8786L18.8136 26.4946L18.0682 27.6385L17.3762 28.8704L17.0567 29.6184L16.897 30.0144L16.0453 29.9704L15.7791 29.9264L15.2467 28.6504L14.8741 27.1985L14.7676 26.5826V25.2186L14.9273 24.1627L15.2467 22.9308L15.2999 22.8428Z" fill="#3E1F38"/>
<path d="M13.8618 32.9614H14.8201L16.5237 33.0934L18.5466 33.3574L19.6646 33.4894L20.2502 33.6214L20.4099 33.9734L20.5164 34.7213L20.7293 35.3373L21.1552 36.3932L21.3149 36.9652V37.5372L21.1552 37.7571L20.889 37.9771L20.6761 38.0651V38.2411L20.1437 38.3291L20.0905 38.3731L19.5049 38.3291L19.2387 38.1091L18.7064 37.7571L18.4934 37.6691V37.5812L18.2805 37.4932L17.6416 36.8772L17.269 36.5252L17.056 36.3052V36.2172H16.9495L16.6834 35.9972L16.5769 35.8213L16.3639 35.7333L15.8316 35.3373L15.7251 35.2933V35.2053H15.6186L15.4057 34.9853L14.6604 34.5893V34.5013L14.4474 34.4133L14.1812 34.2374L13.8086 33.7534V33.0054L13.8618 32.9614Z" fill="#FAC790"/>
<path d="M21.3692 0.227783L21.5289 0.271781L21.9548 0.975739L22.3807 1.50371L22.913 2.07567L23.5519 2.69164L23.9245 2.99962L24.2972 3.3516L25.0425 3.96756L25.4684 4.27555L25.8943 4.62752L26.3202 4.93551L27.3849 5.81545L27.8108 6.12344L28.2899 6.56341L29.3547 7.44336L29.7805 7.75134L30.5791 8.4553L30.9517 8.76328L31.3244 9.11526L31.8568 9.59923L32.6553 10.4792L33.2409 11.2271L33.7733 12.1511L34.0395 12.899L34.1459 13.471V14.043L33.933 14.9229L33.6136 15.7149L33.3474 16.1988L33.2942 16.0669L33.5071 15.3629L33.72 14.4389V13.559L33.5603 12.899L33.2409 11.9751L32.7086 11.2271L32.2294 10.6112L31.5906 9.86322L30.8453 9.20326L29.8338 8.3673L29.4611 8.01533L28.8223 7.48736L28.3964 7.17937L27.9173 6.7834L27.5446 6.43142L27.2252 6.12344L26.6396 5.72746L26.2137 5.41948L25.841 5.0675L25.5749 4.84751V4.75952H25.4684V4.67152L25.3087 4.62752L24.936 4.27555L24.3504 3.74758L24.1907 3.65958V3.57159H24.0842V3.48359H23.9778L23.2325 2.77963L22.5936 2.25166L22.3807 1.98768V1.89968L22.221 1.85569V1.76769H22.1145V1.6797L21.9015 1.5917L21.5821 1.41571V1.32772L21.4224 1.41571V1.81169L21.6886 2.33966V2.60364L21.6354 2.82363V3.48359L21.4757 3.70358H21.5821L21.6886 3.92357L21.6354 4.01156V4.36354L21.7951 4.49553V5.59547L21.8483 6.07944L21.6886 6.65141L21.5289 6.95939L21.4757 7.17937L21.6886 7.48736H21.4224V7.57535L20.3045 7.83934L20.0383 7.79534L19.6656 7.61935L19.7189 7.39936L19.8786 7.13538L19.985 6.47542L20.0915 5.99144L19.8786 4.93551L19.6124 4.84751L19.1865 4.36354L19.0268 4.18755L18.7606 3.70358L18.1218 3.57159L17.5894 3.61558L17.0038 3.74758L16.7376 4.01156L16.5779 4.09956L15.9391 4.18755L15.6729 4.31954L15.5664 4.27555L17.2167 3.3516L18.2815 2.73564L18.8138 2.38366L19.5591 1.85569L20.6771 0.931742L21.1562 0.44777L21.3692 0.227783Z" fill="#A571A9"/>
<path d="M15.5123 15.8469L17.0029 15.8909L18.9726 16.0669L19.505 16.1549L20.3036 16.2429L20.4633 16.2869L20.3036 16.7709L20.0374 17.7828L19.9309 18.4868L19.8244 19.9827L18.387 20.3787L17.1094 20.5986L16.2576 20.6866H15.5655L15.5123 20.5986L15.2993 18.9707L15.2461 18.2668V17.2108L15.459 15.9789L15.5123 15.8469Z" fill="#FCFBFC"/>
<path d="M22.5929 25.4382H23.3382L24.0303 25.5262L24.6691 25.7462L25.308 26.1422L25.5742 26.3182L25.8403 26.5382L25.9468 26.7142H26.0533L26.3195 26.9341L26.3727 27.0661L26.5856 27.1541L26.6389 27.2861L26.7986 27.3301V27.4181L27.0115 27.5061L27.6504 28.1661L28.2892 28.914L28.3957 29.002L28.8748 28.958L29.141 28.87H29.3539L29.4072 28.738L29.6734 29.09L29.7798 29.266L29.8331 29.574L29.6734 30.014L29.3539 30.4099L29.2475 30.4539L28.7151 30.102L28.1295 29.53L27.331 28.87L26.9583 28.5181L26.5324 28.2101L25.9468 27.7701L25.5209 27.4621L24.9885 27.1101L23.8706 26.6702L24.0303 27.1101L24.0835 27.1981V27.4621L24.0303 27.5061L23.9238 28.2541L23.1253 30.19L22.9123 30.7179L22.2735 30.8939H21.9008L20.5167 30.6299L20.4634 30.5419L20.2505 30.4539L20.357 30.3659L20.2505 30.2779L20.1973 30.058V29.75L20.357 29.046L20.6232 28.3421L20.8893 27.8581L21.1555 27.4181L21.4217 27.1101L21.8476 26.8022L22.2735 26.3622L22.4332 26.0542L22.5929 25.7902V25.4382Z" fill="#D5A072"/>
<path d="M10.9341 15.7148H13.5959L15.193 15.8028L15.2463 15.9348L15.0333 16.9908L14.9801 17.5627V18.4867L15.1398 19.9386L15.193 20.2906V20.6866L14.288 20.5546L13.2233 20.2906L12.3715 19.9826L11.5729 19.6306L11.4132 19.4546L11.2003 18.8827L10.9873 17.9587L10.8809 17.3427V15.8468L10.9341 15.7148Z" fill="#FCFBFD"/>
<path d="M26.6928 29.3982L26.9058 29.4422L27.4382 29.7942L27.864 30.2341L27.9705 30.1901L28.3432 30.7181L28.7158 31.1141L29.0885 31.4661V31.6861L28.9288 31.7301L27.2784 31.8181L26.5331 31.906L25.5749 32.17L25.0425 32.434L24.936 32.742L24.8296 33.27L24.5634 33.7979L24.244 34.1499L24.031 34.3699L23.4987 34.6339L22.5404 34.6779L22.1145 34.5459L21.5289 34.1059L21.2627 33.6659L21.1562 33.402V32.742L21.4224 32.214L21.6354 31.95L21.8483 31.7301L22.3275 31.4661L22.4872 31.4221H23.3922L23.9245 31.5981L24.1907 31.5541L24.5101 31.3341L24.7763 31.0261H24.8828L24.9893 30.8501L25.3619 30.5421L25.7346 30.1901L26.2137 29.7502L26.5864 29.4422L26.6928 29.3982Z" fill="#3E1F38"/>
<path d="M26.3201 5.72754L26.6395 5.81553L27.3848 6.29951L27.8107 6.69548L28.2366 7.00346L28.7157 7.35544V7.44344L28.9287 7.53143L29.8337 8.27939L30.2063 8.63137L31.3776 9.59931L31.9632 10.2153L32.4955 10.8752L33.2941 11.9752L33.72 13.2511L33.7732 13.5591V14.439L33.5602 15.363L33.3473 16.0669L33.1876 16.4629L32.9746 16.7709L32.9214 16.6389L33.0811 16.1109L33.3473 15.495L33.4538 15.055H33.5602L33.6135 14.615V13.7351L33.2941 12.8551L33.0279 12.2832L32.6552 11.7112L32.389 11.6232L31.9099 11.7552L31.4308 11.8432H30.6322L29.9934 11.9312L29.674 12.2392L29.4078 12.1512L29.3546 12.0632L29.2481 11.3592L29.0884 10.6992L28.8222 10.0833L28.3963 9.46732L27.9172 9.02735L27.3848 8.63137L26.533 8.19139L26.0007 7.97141L25.3086 7.79542L25.5215 7.75142L26.3201 7.97141L26.2669 7.13546L26.3201 6.73948V6.25551L26.1604 6.07952V5.77154L26.3201 5.72754Z" fill="#713974"/>
<path d="M21.8489 7.57568H23.6057L24.7769 7.70768L25.8416 7.97166L26.6934 8.32364L27.279 8.63162L27.8114 9.0276L28.0776 9.24759L28.5035 9.64356L28.9826 10.4795L29.0891 10.8315V11.1835L28.7696 11.2715L28.6099 11.2275L28.397 10.5675L27.9711 9.86355L27.492 9.37958L27.1726 9.15959L26.8531 9.0716L26.374 8.80761L25.5755 8.49963L24.4575 8.23564L23.6589 8.14765H21.7957L21.2633 8.19165L20.1453 8.49963L19.2936 8.85161L18.4418 9.29158L17.6965 9.77555L17.0576 10.2595L16.3123 10.8755L15.8864 11.3155L15.6202 11.5794L15.3541 11.3595L14.8749 10.6995L14.449 10.2595L14.3426 10.0395L13.757 9.46757L13.0116 8.85161L12.2663 8.49963L11.7872 8.41163H11.2548L10.5095 8.49963L9.65775 8.71962L8.91244 9.0276L8.16713 9.46757L7.74123 9.81955L7.688 9.90755H7.58152L7.47505 10.0835L6.99592 10.6995L6.72974 11.1395L6.41032 11.8874L6.30385 12.5034V13.9113L6.46356 14.6153L6.78298 15.3632L6.99592 15.6712V15.9352L6.6765 15.8472L6.62327 15.7152H6.5168L6.0909 14.9233L5.87796 14.3513L5.77148 13.9113V12.4154L5.93119 11.7554L6.25061 10.9635L6.78298 10.1275L7.31534 9.55557L7.95418 9.0276L8.8592 8.54363L9.76422 8.23564L10.7757 8.01566L11.2548 7.97166H12.0002L12.6922 8.14765L13.4908 8.58762L13.7037 8.71962V8.80761L13.9167 8.89561L14.1296 9.11559L14.3958 9.29158L14.7684 9.64356L15.0346 9.86355L15.4073 10.2595V10.3475H15.5138V10.5235L15.7799 10.4795L16.1526 10.1275L16.7382 9.64356H16.8447V9.55557L17.1109 9.37958H17.2173V9.29158L18.1756 8.71962L18.7612 8.41163L19.8792 7.92766L20.6245 7.70768L21.8489 7.57568Z" fill="#070305"/>
<path d="M21.9548 7.4873H23.0196L24.5634 7.5753L25.0958 7.70729L26.1073 7.97128L26.9058 8.32326L27.4914 8.67523L28.0238 9.07121L28.5029 9.51119L28.9288 10.1711L29.195 10.8311L29.3547 11.5791L29.408 12.063L29.5677 12.195L29.6741 12.239L29.7806 12.063L29.9936 11.887L30.6856 11.7991H31.4309L32.336 11.6231L32.4957 11.5791L32.7619 11.7551L33.1877 12.503L33.5072 13.251L33.6669 13.7349V14.6149L33.5604 15.0549H33.5072L33.4539 13.9549L33.0813 13.6029L32.7619 13.515L32.1763 13.471L32.123 13.515H31.3245V13.6029L31.0583 13.7349H30.6856L30.1 13.8669L29.4612 14.0869H29.0885L28.7691 14.2189L28.4497 14.5269L27.9173 15.3188L27.5447 15.8028L27.0123 16.3748L26.4799 16.8588L26.1073 17.2107L25.3087 17.8707L24.8829 18.1347L24.9893 17.9587L25.2555 17.7387L25.2023 17.4307L25.0958 17.3427L25.2555 17.0787L25.4685 16.9028V16.8588L24.8829 16.7708L22.9131 16.5948L20.7836 16.3308V16.4188L20.6239 16.4628L20.6772 16.2868L19.506 16.1988L19.0801 16.1548V16.1108H20.411L21.2095 16.1548L21.4225 16.2428L22.7534 16.3748L22.9131 16.4188L23.8714 16.4628V16.4188L24.457 16.4628L25.362 16.5948H25.7879L26.3735 16.0228L27.1188 15.1429L27.6512 14.3509L27.9173 13.9109L28.2368 13.207L28.3965 12.591L28.4497 12.151V11.3591L28.2368 10.5671L27.8641 9.95116L27.4914 9.55518L27.0123 9.15921L27.172 9.11521L27.7044 9.51119L28.077 9.95116L28.4497 10.5671L28.5562 10.8311L28.6626 11.2271L29.0353 11.1831V10.8311L28.8224 10.2591L28.3965 9.59918L27.9173 9.11521L27.4914 8.80723L26.9591 8.49925L26.5332 8.27926L25.6814 7.97128L24.7764 7.75129L23.6052 7.6193H21.8484L21.1031 7.70729H20.8369L21.0498 7.6193L21.9548 7.4873Z" fill="#5C2E5A"/>
<path d="M14.1295 24.0305H14.3956L14.4489 26.7144L14.6086 27.7263L14.928 28.8702L15.3007 29.7502V29.9262H12L12.0532 29.4422L12.2662 28.3863L12.6921 27.0223L13.2244 25.7024L13.81 24.4705L14.1295 24.0305Z" fill="#F8C58F"/>
<path d="M20.7829 16.3313L21.4749 16.3753L24.2432 16.7273L25.3612 16.9033L25.0418 17.2112L24.3497 17.7392L23.285 18.3992L22.6994 18.7952L21.7944 19.2351L20.4102 19.8071L20.1973 19.8511V18.9271L20.3037 17.8712L20.5167 16.9913L20.7829 16.3313Z" fill="#EFE4F1"/>
<path d="M11.3597 8.49902H11.8388L12.5309 8.67501L13.3827 9.20298L13.9683 9.68695L14.3942 10.1269L15.033 10.8309L14.9265 11.0509H14.7136L14.1812 10.5669L13.8086 10.2149L13.1697 9.68695L12.6906 9.42297L12.3712 9.29098L11.5194 9.15898H10.7741L9.81584 9.33497L9.07053 9.59896L8.43169 9.99494L7.95256 10.3909L7.52667 10.9629L7.04754 11.8868L6.88783 12.5468V12.8988L7.10078 13.6907L7.26049 13.9547L7.31373 14.1747L7.63314 14.3947L7.79285 14.5267L8.0058 14.6587V14.7467L8.21875 14.8347L8.32522 15.0106L8.37845 15.2746L11.4129 15.3186L12.4777 15.3626L13.7021 15.4506V15.4946H7.04754L6.8346 15.2306L6.46194 14.2627L6.35547 13.6907V12.7228L6.51518 11.8868L6.88783 11.0509L7.31373 10.4349L7.68638 10.0389L8.48493 9.37897L9.33671 8.939L10.1885 8.67501L10.8806 8.54302L11.3597 8.49902Z" fill="#D5A072"/>
<path d="M15.6193 25.3506H16.3646L17.3761 25.4826L18.0682 25.7026L18.3344 25.8786L18.3876 26.0985L18.3344 26.2305L18.4409 26.2745L18.3876 27.0225L18.2279 27.3745L17.0567 27.8584H16.9502V27.9464L16.2049 28.1664H15.8855L15.779 28.0784L15.3532 28.0344H15.1934L14.9805 27.3745L14.874 26.7585V25.4826L15.6193 25.3506Z" fill="#5B2D59"/>
<path d="M24.0296 3.79175L24.6685 3.96774L25.3073 4.5397L25.467 4.6717V4.75969H25.5735L25.9461 5.11167L25.9994 5.24366L26.2123 5.33166V5.41965L26.4253 5.50765L27.1173 6.03562L27.49 6.2996L27.8627 6.65158L27.9159 6.73958L27.7029 6.65158L27.2771 6.2556L26.585 5.81563L26.1591 5.77163L26.2123 6.07961L26.372 6.2556V6.91556L26.3188 7.35554L26.372 8.0155L25.5203 7.79551L24.8282 7.70752L24.562 7.61952L23.0181 7.53153L22.752 7.48753V7.44353H24.0829L23.7634 7.13555L24.1361 6.91556L24.1893 6.69558L24.2426 6.43159L24.0829 5.77163L23.8699 5.33166L23.5505 4.6277V4.31972L23.8167 4.01174L23.9764 3.92374L24.0296 3.79175Z" fill="#94618D"/>
<path d="M19.1858 17.167H19.5052L19.7714 17.343L19.9843 17.783L19.9311 18.4869L19.8246 19.9828L18.3872 20.3788L17.6951 20.5108L16.7369 20.4668L16.4707 20.2908L16.5239 20.0268L16.6836 19.6748L16.8966 19.4549L17.429 18.6189L17.8549 18.0909L18.334 17.651L18.9196 17.343L19.0261 17.211L19.1858 17.167Z" fill="#F6F0FB"/>
<path d="M5.82388 11.5349L5.87712 11.6669L5.71741 12.1949L5.66417 12.4589V13.8228L5.82388 14.5267L6.09006 15.2307L6.56919 16.1106L7.10156 16.8146L7.58069 17.2986L7.68716 17.3426V17.4306H8.05981L8.48571 17.6066L8.53894 17.4746L9.12454 18.0465L9.17778 18.3105L8.80513 18.2665L8.9116 18.5305L9.33749 18.9265L9.92309 19.3225L10.5087 19.6744L10.7749 19.8064V19.8944L11.0411 19.9384L11.5202 20.2024L12.2655 20.5104L12.1058 20.5544L10.8813 20.0264L9.76338 19.4104L9.4972 19.4984L8.80513 19.5864L8.37923 19.3225L8.11305 19.1465L7.90011 19.1025L7.3145 18.6185L6.51596 17.7385L6.03683 17.1226L5.45123 16.1986L5.23828 15.7147V15.4507L5.39799 15.5827L5.29152 14.3947L5.34475 13.6028L5.39799 13.4708L5.50446 12.5469L5.66417 11.8869L5.82388 11.5349Z" fill="#6B3766"/>
<path d="M10.3494 10.9192L10.9883 10.9632L11.4674 11.1392L11.9465 11.4472L12.3192 11.9311L12.4257 12.1951V12.8551L12.2127 13.2071L11.7868 13.515L11.4142 13.647H10.6689L10.1365 13.471L9.65736 13.1631L9.33795 12.8111L9.125 12.1511L9.17824 11.7111L9.44442 11.2712L9.92355 11.0072L10.3494 10.9192Z" fill="#070305"/>
<path d="M21.2631 11.5349H21.8487L22.3811 11.7109L22.7537 12.0189L22.9134 12.3709V12.9868L22.7005 13.4268L22.3278 13.8228L21.8487 14.0868L21.5293 14.2188H20.571L20.1451 14.0428L19.879 13.7788L19.7193 13.5588L19.666 13.3828V12.8548L19.7725 12.5909L20.0919 12.0629L20.571 11.7549L21.0502 11.5789L21.2631 11.5349Z" fill="#090407"/>
<path d="M15.0333 30.2339H15.6189L16.8434 30.3219L17.6951 30.4099L17.8548 30.4539L17.8016 30.9818L17.4822 32.6977L17.429 32.8297H17.216V32.7417H16.6304L15.7786 32.6977L15.2463 32.6097L14.6074 32.5657L14.6607 32.1698L14.8736 31.0698L14.9268 30.6299L15.0333 30.2339Z" fill="#FBF9FB"/>
<path d="M8.59213 15.7148H10.5619L10.6151 15.8908V17.2988L10.7748 18.3107L10.9878 19.1906L10.8813 19.2346L10.5619 19.0586L9.97628 18.6627L9.71009 18.3987L9.2842 18.0907L8.53889 17.4307L7.74034 16.5508L7.31445 15.9348L7.36769 15.7588L8.59213 15.7148Z" fill="#FCFBFD"/>
<path d="M26.3201 5.72754L26.6395 5.81553L27.3848 6.29951L27.8107 6.69548L28.2366 7.00346L28.7157 7.35544V7.44344L28.9287 7.53143L29.8337 8.27939V8.36738H29.7272V8.27939L29.3546 8.23539L29.3013 8.36738L29.5143 8.45538L29.6207 8.54337V8.80736L29.3013 8.89535L29.2481 9.02735H28.9819H28.8222L28.5028 8.93935L28.4495 9.02735L27.9172 8.93935L27.5445 8.76336L27.0654 8.45538L26.3201 8.1034L25.7877 7.92741L25.3086 7.79542L25.5215 7.75142L26.3201 7.97141L26.2669 7.13546L26.3201 6.73948V6.25551L26.1604 6.07952V5.77154L26.3201 5.72754Z" fill="#7B4281"/>
<path d="M12.3726 25.6582L12.4258 25.7462L12.1064 26.4502L11.7337 27.5501L11.4143 28.738L11.2014 29.574L10.9884 29.838L10.7222 30.1019L10.4028 30.2339H9.92369L9.55103 30.0579L9.0719 29.662L8.69925 29.178L8.59277 29.002L8.64601 28.87L8.75248 29.046L9.01867 29.09L9.0719 28.87V28.738L9.33808 28.474L9.87045 27.8141L10.1366 27.4181L10.7222 27.3741L10.9884 27.1981L11.6805 26.4502L12.3726 25.6582Z" fill="#D5A072"/>
<path d="M18.2809 30.6299L18.76 30.6739L20.8362 30.9819L21.3686 31.1139L21.4218 31.2458L21.1556 31.4658L20.8362 31.8178L20.6233 32.1698L20.4103 32.7418L20.3571 33.1377L20.1441 33.1817L18.2809 32.9617L17.9614 32.8738L17.9082 32.8298L17.9614 32.2138L18.2809 30.6299Z" fill="#3E1F38"/>
<path d="M13.9693 30.1899L14.5549 30.2339V30.7179L14.2887 32.1258L14.1822 32.4778L14.129 32.5218L12.106 32.4338L11.9463 32.3898V32.6978H11.8931L11.8398 30.3659L12.0528 30.2779L12.2125 30.2339L13.9693 30.1899Z" fill="#3F1F38"/>
<path d="M31.2711 9.73145L31.484 9.81944L31.5905 9.95143L31.8567 10.0834L32.2826 10.6114L32.6552 11.0954L33.294 11.9753L33.7199 13.2512L33.7732 13.5592V14.4392L33.5602 15.3631L33.3473 16.0671L33.1876 16.4631L32.9746 16.771L32.9214 16.639L33.0811 16.1111L33.3473 15.4951L33.4538 15.0551H33.5602L33.6135 14.6152V13.7352L33.294 12.8553L33.0279 12.2833L32.6552 11.7113L32.389 11.6233L31.9099 11.7553L31.4308 11.8433H30.6322L29.9934 11.9313L29.674 12.2393L29.4078 12.1513L29.3545 12.0633L29.2481 11.3593L29.1416 10.7434L29.461 10.7874V10.6994L29.674 10.6554L30.579 10.8754L31.697 10.7874L31.484 10.3034L31.2711 9.86344V9.73145Z" fill="#6C3867"/>
<path d="M25.2544 43.6091L25.4673 43.6531L25.9465 43.9611L26.4788 44.3571L27.0112 44.8411L26.958 45.105L26.6918 45.237L26.4788 45.413L26.1062 45.545L25.3609 45.677H24.5091L23.9235 45.545L23.6573 45.325L23.6041 45.149H23.4976V45.017H23.3911L23.3379 44.8411L23.4444 44.5771H23.5508V44.4891H23.7638V44.4011L24.1364 44.2251L24.7753 43.9611L25.2012 43.7411L25.2544 43.6091Z" fill="#F9C690"/>
<path d="M11.5203 6.65112H11.8397L11.9462 6.73912L11.9994 7.0911L11.9462 7.31108H11.8397L11.7865 7.48707L11.5203 7.61907L11.467 7.79506L11.7865 7.83905V7.88305L10.6685 7.92705L9.65699 8.14704L8.80521 8.49901L8.0599 8.89499L7.90019 8.93899V9.02698L7.4743 9.33497L6.8887 9.86293L6.35633 10.5669L6.03691 11.1389L5.66426 12.0188L5.50455 12.8988L5.45131 13.4707L5.39807 13.7347L5.34484 14.6147L5.45131 15.7146L5.18513 15.5386L5.02542 15.0106L4.91895 14.1747V13.2507L5.07865 12.3708L5.45131 11.4468L6.03691 10.5229L6.56928 9.90693L7.26135 9.24697L7.68724 8.89499L8.11313 8.58701L8.80521 8.10304L9.71023 7.53107L9.92317 7.44308L9.8167 7.61907L10.2958 7.35508L10.775 7.0471L11.0411 6.91511H11.1476V6.82711L11.4138 6.78312V6.69512L11.5203 6.65112Z" fill="#AA78A2"/>
<path d="M28.2368 13.207L28.3432 13.295V13.427L28.6094 13.339L28.8224 13.383L28.7691 13.691L28.6094 14.131L28.29 14.571L27.9706 15.0549L27.4914 15.7149L26.7461 16.5068L26.267 16.9908L26.1073 17.2108L25.3087 17.8708L24.8829 18.1347L24.9893 17.9588L25.2555 17.7388L25.2023 17.4308L25.0958 17.3428L25.2555 17.0788L25.4685 16.9028V16.8588L24.8829 16.7708L22.9131 16.5948L20.7836 16.3308V16.4188L20.6239 16.4628L20.6772 16.2869L19.506 16.1989L19.0801 16.1549V16.1109H20.411L21.2095 16.1549L21.4225 16.2429L22.7534 16.3748L22.9131 16.4188L23.8714 16.4628V16.4188L24.457 16.4628L25.362 16.5948H25.7879L26.3735 16.0229L27.1188 15.1429L27.6512 14.351L27.9173 13.911L28.2368 13.207Z" fill="#6E3A67"/>
<path d="M22.7004 22.8428L23.5522 23.0628L24.2975 23.4587L24.4572 23.5907L24.404 23.7667L24.2975 23.9427H24.1378L24.0845 24.0307L23.4457 24.2507L22.9133 24.4267L22.3277 24.6467L21.9018 24.6907L20.7839 24.9107L20.6242 24.9546V25.0426L20.3047 25.2186L20.0918 25.3946L20.1983 25.1746L20.6242 24.6907L20.8371 24.4707L20.9436 24.2507L21.3162 23.9867L21.7954 23.5027L22.4874 22.9308L22.7004 22.8428Z" fill="#7F585F"/>
<path d="M18.8671 2.3396H18.9735L19.0268 2.47159L18.9735 2.60358H18.8671V2.69158H18.7606L18.6541 2.86757L18.3879 3.04356L18.6541 3.08756V3.17555L18.8671 3.21955L18.7074 3.26355L18.8671 3.39554L18.7074 3.43954L19.08 3.57153L19.1333 3.79151L19.2397 3.83551L19.3994 4.0555L19.8253 4.45148L20.0383 4.58347L20.1447 4.89145L20.3045 4.93545L20.4642 5.6834L20.5174 6.07938L20.5706 6.82734L20.4642 7.26731L20.7303 7.57529L20.6771 7.66329L20.9433 7.61929L20.8368 7.70729L20.3045 7.83928L20.0383 7.79528L19.6656 7.61929L19.7189 7.3993L19.8786 7.13532L19.985 6.47536L20.0915 5.99139L19.8786 4.93545L19.6124 4.84745L19.1865 4.36348L19.0268 4.18749L18.7606 3.70352L18.1218 3.57153L17.5894 3.61553L17.0038 3.74752L16.7376 4.0115L16.5779 4.0995L15.9391 4.18749L15.6729 4.31948L15.5664 4.27549L17.2167 3.35154L18.2815 2.73558L18.8138 2.3836L18.8671 2.3396Z" fill="#AA78A3"/>
<path d="M6.99414 15.4509H12.7437L14.9264 15.5389L18.4932 15.8029L21.5809 16.1109L23.8169 16.3749L23.9233 16.5069L22.9118 16.4629L22.7521 16.4189L21.4212 16.2869L21.1018 16.1989L20.4097 16.1549L18.9723 16.1109L17.0026 15.9349L15.512 15.8469V15.9789L15.4055 16.0229L15.2458 16.9468H15.1926V15.8469L13.5955 15.7589L13.4358 15.7149L12.1581 15.6709H10.9336L10.7207 15.7589L10.6675 15.6709H8.538L7.20709 15.7149L7.15385 15.8909L7.10061 15.5829L6.99414 15.5389V15.4509Z" fill="#4B293F"/>
<path d="M23.2847 44.8413L23.3912 45.0173H23.4977V45.1493H23.6041L23.7638 45.4133L24.243 45.5893L24.5091 45.6333H25.3609L26.2127 45.4573L26.5321 45.3253L26.7983 45.1053H26.958V44.8853L27.2242 45.1053L27.4904 45.5893L27.5436 45.8972L27.4372 46.1172L27.3839 46.1612L24.7753 46.2052H23.8171L23.2847 46.1612L23.1782 46.0732L23.125 45.8972V45.2373L23.2315 44.8853L23.2847 44.8413Z" fill="#D6A172"/>
<path d="M26.2657 4.97949L26.4786 5.06749L27.3836 5.81544L27.8095 6.12343L28.2886 6.5634L29.3534 7.44335L29.7793 7.75133L30.5778 8.45529L30.9505 8.76327L31.3231 9.11525L31.8555 9.59922L32.654 10.4792L33.2396 11.2271L33.772 12.1511L34.0382 12.899L34.1447 13.471V14.043L33.9317 14.9229L33.7188 15.4949H33.6123L33.772 14.6149L33.8252 14.2629V13.471L33.6123 12.767L33.5058 12.547L33.2929 11.7551L33.1332 11.7111L32.867 11.3151L32.7073 11.0071L32.5476 10.7872L32.4411 10.7432L32.3346 10.5232L32.0684 10.2152L31.962 10.1712L31.8022 9.9072L31.6425 9.81921L31.4828 9.59922L30.9505 9.11525V9.02725L30.7375 8.93926L30.0987 8.3233L29.726 7.97132L29.3001 7.66333L28.7678 7.22336L28.6613 7.17936V7.09137L28.3951 7.00337L28.1822 6.78339L27.7563 6.4754V6.34341L27.5433 6.25542L27.3304 6.03543L27.0642 5.81544L27.011 5.68345L26.798 5.59546L26.5318 5.41947L26.4786 5.24348L26.2124 5.15548L26.1592 5.02349L26.2657 4.97949Z" fill="#B687B9"/>
<path d="M24.4563 23.6345L24.7757 23.8545L24.9886 24.0745L24.9354 24.2505L24.8289 24.3825L23.9771 24.7345L22.9124 25.0424L22.4333 25.1304L21.5283 25.3504L20.5168 25.5704L20.2506 25.6584H19.9844L19.8779 25.7024L19.9844 25.5264L20.3571 25.1304L20.6232 25.0424V24.9544L20.7829 24.8664L21.9009 24.6465L22.4865 24.5585L23.1254 24.2945L23.6577 24.1185L24.1368 23.9425H24.2966L24.403 23.7225L24.4563 23.6345Z" fill="#D5A072"/>
<path d="M10.2955 11.4473H10.8811L11.3603 11.7113L11.6264 11.9752L11.7329 12.1952V12.7232L11.52 12.9872L11.2006 13.1192L10.615 13.0752L10.2955 12.8992L9.92288 12.5472L9.81641 12.3272V11.8432L9.97612 11.5793L10.2955 11.4473Z" fill="#402039"/>
<path d="M5.82388 11.5349L5.87712 11.6669L5.71741 12.1949L5.66417 12.4589V13.8228L5.77065 14.6147L5.87712 15.0987L5.93036 15.2747H6.03683L6.19654 15.5827L6.35625 16.1106L6.46272 16.4186V16.8586L6.51596 16.9466L6.46272 17.1666L6.1433 17.1226L5.98359 16.8586V16.7266H5.87712L5.71741 16.4626H5.61094L5.29152 15.8467L5.23828 15.4507L5.39799 15.5827L5.29152 14.3947L5.34475 13.6028L5.39799 13.4708L5.50446 12.5469L5.66417 11.8869L5.82388 11.5349Z" fill="#703872"/>
<path d="M21.2624 12.1069H21.7948L22.1142 12.3269V12.4149H22.2207V12.8549L21.9013 13.2949L21.3689 13.6468L21.2624 13.6908H20.8898L20.4639 13.5149L20.3574 13.2949V12.8989L20.5171 12.6349L20.8366 12.2829L21.2624 12.1069Z" fill="#42223B"/>
<path d="M24.8291 4.1438L25.042 4.23179L25.3615 4.45178L25.7341 4.80376L25.9471 4.89175L26.2133 5.11174L26.4794 5.24373L26.5327 5.41972L26.7456 5.50772L27.0118 5.68371L27.2247 5.94769L27.4909 6.12368L27.7571 6.34367L27.9168 6.56366L28.2362 6.78364L28.5024 7.00363L28.6621 7.09163V7.17962L28.8751 7.26762L29.6204 7.88358L29.993 8.14756L30.4722 8.63154L30.8448 8.98352L31.111 9.2035L31.6434 9.68747V9.81947L31.8563 9.90746L31.9628 10.0395V10.1714L32.1225 10.2154L32.4419 10.5674V10.7434L32.6016 10.7874L32.8678 11.1394L33.0275 11.4474L33.1872 11.7114L33.2937 11.7554L33.5066 12.2833L33.6131 12.5913L33.8261 13.3833L33.8793 13.6032V14.2632L33.7728 15.0112L33.6664 15.4951L33.5066 15.9351L33.3469 16.1991L33.2937 16.0671L33.5066 15.3631L33.7196 14.4392V13.5592L33.5599 12.8993L33.2405 11.9753L32.7081 11.2274L32.229 10.6114L31.5901 9.86346L30.8448 9.2035L29.8333 8.36755L29.4607 8.01557L28.8218 7.4876L28.3959 7.17962L27.9168 6.78364L27.5442 6.43166L27.2247 6.12368L26.6391 5.72771L26.2133 5.41972L25.8406 5.06774L25.5744 4.84776V4.75976H25.4679V4.67177L25.3082 4.62777L24.9356 4.27579L24.8291 4.1438Z" fill="#A471A1"/>
<path d="M6.19662 10.3472H6.30309L6.24986 10.7431L5.98367 11.2711L5.66426 12.0191L5.50455 12.899L5.45131 13.471L5.39807 13.735L5.34484 14.6149L5.45131 15.7149L5.18513 15.5389L5.02542 15.0109L4.91895 14.1749V13.251L5.07865 12.371L5.45131 11.4471L6.03691 10.5232L6.19662 10.3472Z" fill="#AB79A4"/>
<path d="M19.7184 25.9663L19.8249 26.0103L19.5587 26.4503L19.186 27.1102L18.7602 27.8142L18.494 28.2982L18.1746 28.8701L17.8551 29.5741L17.8019 29.7501L17.9084 29.8821L19.2925 30.1021L19.8781 30.2781L19.9314 30.3661H19.4522L17.3228 30.1021L17.2695 30.0141L17.9616 28.6062L18.2278 28.0782L18.6537 27.3742L19.2393 26.4503L19.5055 26.0983L19.7184 25.9663Z" fill="#F8D0A7"/>
<path d="M21.3692 0.227783L21.5289 0.271781L21.9548 0.975739L22.3807 1.50371L22.9131 2.07567L23.5519 2.69164L23.9245 2.99962L24.2972 3.3516L25.0425 3.96756L25.4684 4.27555L25.8943 4.62752L26.3202 4.93551L26.267 5.0235H26.1605L26.1072 5.1115L25.9475 4.9795V4.89151L25.7346 4.84751L25.3619 4.53953V4.45154L25.149 4.36354L24.3504 3.74758L24.1907 3.65958V3.57159H24.0843V3.48359H23.9778L23.2325 2.77963L22.9663 2.55965L22.7533 2.25166L22.4872 1.89969L22.221 1.6797L22.1677 1.54771L22.0613 1.50371L21.9548 1.28372H21.8483L21.7951 1.10773H21.6886V1.01974H21.5821L21.4757 0.79975L21.3692 0.711755L21.1562 0.667757L21.316 0.271781L21.3692 0.227783Z" fill="#AC7AA3"/>
<path d="M8.06024 17.9587L8.32642 18.1787L8.80555 18.6627L9.39115 19.0147L9.92351 19.4547L9.65733 19.4107L9.49762 19.4986L8.80555 19.5866L8.37966 19.3227L8.11347 19.1467L7.90053 19.1027L7.36816 18.6627V18.5747L7.52787 18.5307L7.68758 18.5747V18.2667L7.90053 18.1787L7.84729 18.0907L8.007 18.0467L8.06024 17.9587Z" fill="#5B2D59"/>
<path d="M21.9539 7.4873H23.0186L24.5625 7.5753L25.0949 7.70729L26.1063 7.97128L26.9049 8.32326L27.4905 8.67524L28.0229 9.07121L28.502 9.51119L28.9279 10.1711L29.1941 10.8311L29.2473 11.0511V11.843L28.8746 12.503L28.7149 12.767H28.502V11.1391H28.6085L28.6617 11.2271L29.0344 11.1831V10.8311L28.8214 10.2591L28.3955 9.59918L27.9164 9.11521L27.4905 8.80723L26.9581 8.49925L26.5322 8.27926L25.6805 7.97128L24.7754 7.75129L23.6042 7.6193H21.8474L21.1021 7.70729H20.8359L21.0489 7.6193L21.9539 7.4873Z" fill="#3E1F38"/>
<path d="M6.14261 25.4827L6.40879 25.7027L6.99439 26.2306L7.47352 26.8026L8.21883 27.7265L8.37854 27.9465L8.27207 28.1665L8.16559 28.2545L8.21883 28.3425L7.84617 28.3865L7.20734 27.3746L6.67497 26.6266L6.24908 25.9226L6.03613 25.6587V25.5267L6.14261 25.4827Z" fill="#7C5161"/>
<path d="M11.2542 8.36743H11.7866L12.2657 8.45543L13.011 8.80741L14.0225 9.64336L14.4484 10.0833L14.3952 10.1713L13.9693 9.77535L13.5966 9.42337L13.1175 9.07139L12.4254 8.67541L11.8398 8.54342H11.3607L10.5622 8.63142L9.44419 8.9394L8.80535 9.24738L8.32622 9.55536L7.58091 10.1713L7.15502 10.7433L6.78236 11.3593L6.51618 12.1072L6.40971 12.7232V13.9991H6.30324L6.25 13.9111V12.5032L6.40971 11.7552L6.8356 10.8313L7.31473 10.2153L7.58091 9.90734H7.68738L7.79386 9.73135L8.27299 9.33537L9.28448 8.80741L10.083 8.54342L10.7751 8.41143L11.2542 8.36743Z" fill="#553247"/>
<path d="M22.6993 22.8428L23.5511 23.0628L23.7641 23.3267L23.6043 23.5027L23.2849 23.5907L22.8058 23.7667L21.9008 24.0307H21.5814L21.2619 24.2067L20.6231 24.8667L20.4102 24.9986L20.5166 24.7787L20.836 24.4707L20.9425 24.2507L21.3152 23.9867L21.7943 23.5027L22.4864 22.9308L22.6993 22.8428Z" fill="#6C3866"/>
<path d="M23.8715 26.6704L24.3506 26.8024L25.1492 27.1544L25.8413 27.6824L26.2672 27.9903L27.3319 28.7823L27.7045 29.1343L28.3966 29.7062L28.6096 29.9702L28.3966 29.8822L27.9707 29.6182L27.5981 29.2663L27.1189 28.8263L26.3204 28.1663L25.8945 27.8583L25.1492 27.3304L24.6168 27.0664L24.0312 26.8024L24.2442 27.1104L24.4039 27.2864V27.5944L24.0845 28.2983L23.4989 29.6182L23.1262 30.4102L22.9665 30.8062L22.4874 30.8942L22.2744 30.8502L22.86 30.7182L23.3924 29.3983L23.8715 28.2543L23.978 27.5064L24.0312 27.4624V27.1984L23.8715 26.8904V26.6704Z" fill="#3E1F38"/>
<path d="M20.7829 16.3313L21.4749 16.3753L22.0605 16.4633V16.5513L21.3152 16.7713L20.9426 17.0793L20.6232 18.0472L20.4634 18.7072L20.4102 19.3231L20.4634 19.4991L20.8361 19.5431V19.6311L20.2505 19.8511H20.1973V18.9271L20.3037 17.8712L20.5167 16.9913L20.7829 16.3313Z" fill="#F5EFFA"/>
<path d="M9.28393 27.198H9.33716L9.44364 27.594L9.49687 27.682L10.0292 27.462H10.1357L10.0292 27.638L9.70982 28.0779L9.28393 28.6059H9.17745L9.07098 28.8259L9.12422 28.9139L9.01774 29.0899L8.85803 29.1339V29.0459H8.75156L8.59185 28.8699L8.53862 28.3859V28.2539H8.37891L8.48538 27.99L8.96451 27.594L9.28393 27.198Z" fill="#070305"/>
<path d="M17.6939 30.9819H17.7471L17.6939 31.5099L17.4809 32.6978L17.4277 32.8298H17.2147V32.7418H16.6291L15.7773 32.6978V32.6538L16.4162 32.6098L16.4694 32.3459L16.8421 31.7299L17.268 31.2459L17.4277 31.1139L17.6406 31.0699L17.6939 30.9819Z" fill="#EADDEB"/>
<path d="M15.8326 44.4893L16.152 44.5773L16.2585 44.7972L16.3117 44.8412L16.2585 45.1492L16.0988 45.2812L15.7793 45.4132L15.1405 45.4572L14.6614 45.3692L14.4484 45.2812H14.0758L13.7031 45.5012L13.8096 45.3252L14.3952 44.9732L15.1405 44.6652L15.8326 44.4893Z" fill="#F9C690"/>
<path d="M25.043 24.2505L25.2559 24.3385L25.7883 24.9104L26.3739 25.4824L26.9595 26.0984L27.6516 26.8023L28.7163 27.9023L29.3019 28.5622L29.1954 28.6502L28.9292 28.5182L28.3436 27.8583L27.7048 27.2863L27.2789 26.8463L26.853 26.3624V26.2744H26.7465L26.2674 25.7904L25.8948 25.4384L25.4689 24.9984L25.2027 24.6465V24.5585H25.0962L25.043 24.2505Z" fill="#FDD7AD"/>
<path d="M14.2353 25.7026H14.2885L14.3417 25.9226L14.395 26.6706L14.4482 26.7146L14.6079 27.7265L14.9273 28.8705L15.2468 29.6184V29.8824L12.6914 29.8384L12.7979 29.7504L13.49 29.6624H14.9273L14.9806 29.5304L14.6612 28.9584L14.5014 28.4745L14.3417 27.8145L14.182 26.8906L14.1288 26.0106L14.2353 25.7026Z" fill="#F9D1A7"/>
<path d="M23.6045 16.6389L24.2966 16.6829L25.1484 16.7709L25.521 16.8589L25.3613 17.0789L25.2548 17.1229L25.1484 17.3429L25.3081 17.5629L25.2548 17.7828L24.7757 18.2228L24.3498 18.5308L24.2433 18.3988H23.9239L23.7642 18.3108L23.8707 18.1348L24.2433 17.7389L24.8289 17.3429L25.3081 16.9469L24.8289 16.8589L23.6045 16.6829V16.6389Z" fill="#966390"/>
<path d="M26.5324 30.2783H26.7985L26.6388 30.5423L26.0532 31.0703L25.2014 31.7302L24.7756 32.0382L24.5094 32.1262L24.19 31.9502L24.1367 31.8182L24.5626 31.5542L25.3079 31.1583L26.1065 30.5863L26.3194 30.4983V30.4103H26.4259V30.3223L26.5324 30.2783Z" fill="#6F3D64"/>
<path d="M9.12363 18.0464L10.4013 19.1023L10.3481 19.1903L9.656 18.8383L9.49629 18.9703L9.70923 19.0583L10.2416 19.4543L10.6675 19.6303V19.7183L10.8804 19.7623L11.6257 20.1583L12.4775 20.5102L13.2761 20.7742L14.2876 21.0822V21.1262L13.8617 21.0822L13.489 20.9942L12.4775 20.6862V20.5982L12.2113 20.5102L11.3596 20.1583L10.9337 19.9383L10.774 19.8943V19.8063L10.5078 19.7183L9.92218 19.3663L9.2301 18.8823L8.80421 18.4424L8.75098 18.2664L9.01716 18.2224L9.12363 18.2664V18.0464Z" fill="#95628E"/>
<path d="M10.1366 27.4185H10.2431L10.0302 28.0344L9.76398 28.7384L9.39132 29.6183H9.28485L9.33808 29.7943L9.12514 29.7063L8.75248 29.2663L8.59277 29.0024L8.64601 28.8704L8.75248 29.0464L9.01867 29.0904L9.0719 28.8704V28.7384L9.33808 28.4744L9.87045 27.8144L10.1366 27.4185Z" fill="#7F585F"/>
<path d="M10.668 7.8833H11.8925L12.3716 7.9713L13.0104 8.19128V8.27928L13.2766 8.32327L13.5428 8.54326L13.9687 8.85124L14.5543 9.33522L14.8205 9.5992L14.7673 9.68719L14.1284 9.15923L13.809 8.85124L13.7025 8.80725V8.71925L13.4896 8.63126L12.691 8.19128L11.999 8.01529H11.2536L10.5083 8.10329L9.4436 8.36727L8.59182 8.71925L7.89975 9.11523L7.26091 9.6432L6.83502 10.1272L6.62207 10.2152L6.72854 9.99518L7.31414 9.42321L7.79327 9.02723H7.89975V8.93924L8.69829 8.49926L9.49684 8.14729L10.4019 7.9273L10.668 7.8833Z" fill="#3F2039"/>
<path d="M13.7548 24.8223H13.8613L13.7548 25.3502L13.2757 26.2742L12.903 27.1981L12.4771 28.4741L12.2642 29.222H12.2109V28.606L12.6901 27.0221L13.2224 25.7022L13.5951 24.9103L13.7548 24.8223Z" fill="#F6CDA2"/>
<path d="M22.5929 31.73H23.0188L23.285 31.906L23.3382 32.3019L23.1785 32.5219L22.6994 32.6539L22.3267 32.6099L22.0605 32.3899V32.082L22.3267 31.818L22.5929 31.73Z" fill="#7F516B"/>
<path d="M11.1475 7.04761L11.467 7.0916L11.5202 7.39959L11.3072 7.75157L11.7864 7.83956V7.88356L10.6684 7.92756L9.65692 8.14754L9.07132 8.36753L8.96484 8.32353L9.39074 8.10355L10.136 7.88356V7.70757H10.2425L10.349 7.44358L10.8814 7.1796L11.1475 7.04761Z" fill="#A570A9"/>
<path d="M22.8595 13.251H22.9127V13.647L22.6466 14.0869L22.1674 14.4389L21.848 14.5269H21.0495L20.5171 14.2629L20.4639 14.1749H21.5286L22.1142 13.9109L22.3804 13.7349L22.6466 13.427L22.8063 13.471L22.8595 13.251Z" fill="#D39F71"/>
<path d="M12.4777 7.4873H13.01L13.3295 7.6193L13.5424 7.92728V8.36725L13.3827 8.41125L13.01 8.27926L12.9568 8.19126L12.2115 7.97128V7.88328L11.9453 7.83928V7.70729L12.4777 7.4873Z" fill="#ECDFEC"/>
<path d="M11.9453 32.6101H12.6906L15.3524 32.7861L17.8546 33.0501L19.6646 33.2701L20.5164 33.4461L20.7826 34.018L21.1552 34.502L21.5279 34.766L22.0602 34.986L22.5394 35.118V35.206H22.22L21.6876 35.03L21.2085 34.722L20.889 34.414L20.5164 33.798L20.4099 33.4901L18.3869 33.2261L16.5236 33.0061L14.6071 32.8301L11.9453 32.6981V32.6101Z" fill="#502E43"/>
<path d="M22.3271 19.4988H22.4868V19.5868L20.943 20.2467L19.5588 20.6867L19.1329 20.8187H18.707L18.92 20.6867L19.7718 20.3787H19.8782V20.2907L20.8365 19.9828L21.3156 19.8068L22.0077 19.5428L22.3271 19.4988Z" fill="#B788B5"/>
<path d="M21.9539 7.4873H23.0186L24.5625 7.5753L25.0949 7.70729L26.1063 7.97128L26.9049 8.32326L27.4905 8.67523L28.0229 9.07121L28.502 9.51119L28.9279 10.1711L29.0876 10.5231L29.0344 10.6991L28.7682 10.1711L28.3955 9.59918L27.9164 9.11521L27.4905 8.80723L26.9581 8.49925L26.5322 8.27926L25.6805 7.97128L24.7754 7.75129L23.6042 7.6193H21.8474L21.1021 7.70729H20.8359L21.0489 7.6193L21.9539 7.4873Z" fill="#3E1F38"/>
<path d="M5.55701 12.0193H5.61017L5.55701 12.5473L5.45069 13.4712L5.39753 13.7352L5.34436 14.6151L5.45069 15.7151L5.18488 15.5391L5.02539 15.0111V14.5711L5.07855 14.4831H5.18488L5.13171 14.1752V13.8672L5.18488 13.4712L5.2912 12.8552L5.50385 12.1513L5.55701 12.0193Z" fill="#95628E"/>
<path d="M8.32622 9.4231L8.4327 9.46709L7.58091 10.1711L7.15502 10.743L6.78236 11.359L6.51618 12.1069L6.40971 12.7229V13.9988H6.30324L6.25 13.9108V12.5029L6.40971 11.755L6.8356 10.831L7.31473 10.215L8.11328 9.59909L8.32622 9.4231Z" fill="#5C374B"/>
<path d="M14.7673 22.7544H14.8205L14.7673 23.2384L14.6076 23.7663L14.5011 24.8663L14.4479 26.7142H14.3946L14.3414 24.0743L14.1285 24.0303L14.022 24.2063L13.9688 24.1183L14.2349 23.5024L14.4479 23.1504L14.6076 22.8424L14.7673 22.7544Z" fill="#3C1E36"/>
<path d="M23.8711 26.6704L24.3502 26.8024L25.1488 27.1544L25.8408 27.6824L26.2667 27.9903L27.3315 28.7823L27.7041 29.1343L28.3962 29.7062L28.6091 29.9702L28.3962 29.8822L27.9703 29.6182L27.5976 29.2663L27.1185 28.8263L26.32 28.1663L25.8941 27.8583L25.1488 27.3304L24.6164 27.0664L24.0308 26.8024L23.9776 26.9784L23.8711 26.8904V26.6704Z" fill="#563448"/>
<path d="M1.93758 21.303H2.46995L2.62966 21.523V21.8309L2.41671 22.0509L1.93758 22.0949L1.6714 21.9189L1.61816 21.611L1.77787 21.391L1.93758 21.303Z" fill="#D6A172"/>
<path d="M19.0801 16.1106H20.411L21.2095 16.1546L21.4225 16.2426L22.7534 16.3746L23.0196 16.4626L23.9246 16.5506L23.9778 16.6386H23.2858L20.7836 16.3306V16.4186L20.6239 16.4626L20.6772 16.2866L19.506 16.1986L19.0801 16.1546V16.1106Z" fill="#966A6D"/>
<path d="M5.50409 12.5474H5.55725V14.3073L5.71674 14.8352L5.66358 15.0992L5.50409 15.2752L5.55725 15.6712L5.61042 16.0232H5.50409L5.45093 16.1991L5.23828 15.7152V15.4512L5.39777 15.5832L5.29144 14.3953L5.34461 13.6033L5.39777 13.4713L5.50409 12.5474Z" fill="#7B4281"/>
<path d="M10.7751 9.11548H11.5204L12.3722 9.24747L12.9578 9.51146L13.5967 9.99543L13.9693 10.3034L13.9161 10.3914L13.6499 10.2154V10.1274H13.5434L13.3305 9.90743L12.5852 9.46746L12.1593 9.33547L11.201 9.24747L10.2428 9.33547L9.55069 9.51146L8.91186 9.77544L8.43273 10.0834L8.16655 10.3474L8.00684 10.3034L8.5392 9.86343L9.28451 9.46746L9.97659 9.24747L10.7751 9.11548Z" fill="#FAC790"/>
<path d="M15.5664 36.5693L15.7794 36.6573L16.4714 37.0533L17.0038 37.3613V37.4493H16.8973L16.8441 37.8013V38.0652L16.5779 37.8453L16.2052 37.3613L15.9391 37.0973L15.7261 36.9213L15.5664 36.5693Z" fill="#4E2C42"/>
<path d="M2.2043 21.1707H3.00284V21.2147L2.63019 21.2586L2.84313 21.5226V21.8746L2.57695 22.1386L2.31077 22.2706H1.93811L1.56546 22.0946L1.45898 21.9186V21.5666L1.61869 21.3466L2.2043 21.1707ZM1.93811 21.3026L1.67193 21.5226L1.61869 21.6986L1.72517 21.9626L1.93811 22.0946L2.41724 22.0506L2.63019 21.8306V21.5226L2.47048 21.3026H1.93811Z" fill="#7B4F64"/>
<path d="M32.6553 11.1389L32.8682 11.2269L33.1876 11.7109L33.2941 11.7549L33.5071 12.2828L33.6135 12.5908L33.8265 13.3828L33.8797 13.6028V14.2627L33.7732 15.0107L33.6668 15.4947L33.5071 15.9346L33.3473 16.1986L33.2941 16.0666L33.5071 15.3627L33.72 14.4387V13.5588L33.5603 12.8988L33.2409 11.9749L32.7085 11.2269L32.6553 11.1389Z" fill="#966390"/>
<path d="M9.65625 13.1631L10.2419 13.4711L10.6677 13.6031H11.4131L11.8389 13.4271L11.9454 13.4711L11.6792 13.6471L12.1051 13.4711L12.2116 13.5151L11.8922 13.823L11.5195 13.955L11.2001 13.999L10.8275 13.911L10.6145 13.823V13.7351L10.3483 13.6911L10.0289 13.5151L9.65625 13.2511V13.1631Z" fill="#D5A071"/>
<path d="M12.6911 26.802H12.7976L12.5847 27.506L12.2652 28.6059L11.9991 29.9258L12.4782 29.8818H14.8206V29.9258L11.8926 30.0138L11.9458 29.2219L12.1588 28.4739L12.4249 27.506L12.6911 26.802Z" fill="#4D2B41"/>
<path d="M15.8857 37.0537L16.1519 37.2737L16.4713 37.6257L16.7908 38.0217L16.8972 38.0657L16.9505 38.2416V39.1216H16.844V38.9016H16.7375L16.5778 38.6376L16.3649 37.9337L16.1519 37.4497L15.8857 37.1417V37.0537Z" fill="#835B62"/>
<path d="M10.0302 27.4624H10.1366L10.0302 27.6384L9.71074 28.0784L9.28485 28.6063H9.17837L9.0719 28.8263L9.12514 28.9143L9.01867 29.0903L8.85896 29.1343V29.0463H8.75248L8.59277 28.8703V28.6943L8.91219 28.5183L9.39132 28.1224L9.81721 27.6384V27.5504L10.0302 27.4624Z" fill="#3E1F38"/>
<path d="M22.6993 22.8428L23.1785 22.9748V23.0188L22.6993 23.0628L22.167 23.4587L21.7943 23.8107L21.2619 24.2067L20.6231 24.8667L20.4102 24.9986L20.5166 24.7787L20.836 24.4707L20.9425 24.2507L21.3152 23.9867L21.7943 23.5027L22.4864 22.9308L22.6993 22.8428Z" fill="#3E1F38"/>
<path d="M33.5059 12.283L33.6122 12.415L33.9312 13.2949L34.0906 13.5589L34.1438 14.0429L33.9312 14.9228L33.7185 15.4948H33.6122L33.7717 14.6148L33.8248 14.2628V13.4709L33.6122 12.7669L33.5059 12.5469V12.283Z" fill="#AD7BA2"/>
<path d="M24.8291 4.1438L25.042 4.23179L25.3615 4.45178L25.7341 4.80376L25.9471 4.89175L26.2133 5.11174L26.4794 5.24373L26.5327 5.41972L26.7456 5.50772L27.0118 5.68371L27.2247 5.94769L27.4909 6.12368L27.5442 6.25567L27.3312 6.21168L26.5327 5.63971L26.2133 5.41972L25.8406 5.06774L25.5744 4.84776V4.75976H25.4679V4.67177L25.3082 4.62777L24.9356 4.27579L24.8291 4.1438Z" fill="#A875A5"/>
<path d="M10.668 7.8833H11.2536V7.9273L10.4551 8.01529L9.4436 8.27928L9.01771 8.45527L8.858 8.58726L8.11269 8.98324L7.58033 9.37921L7.1012 9.81919L6.83502 10.1272L6.62207 10.2152L6.72854 9.99518L7.31414 9.42321L7.79327 9.02723H7.89975V8.93924L8.69829 8.49926L9.49684 8.14729L10.4019 7.9273L10.668 7.8833Z" fill="#582D54"/>
<path d="M22.2209 8.01538H23.5518L24.6166 8.14737L25.6813 8.41136L26.5331 8.76334L27.0122 9.02732V9.11532L26.7993 9.02732L26.2669 8.76334L25.5748 8.49935L24.4569 8.23537L23.6583 8.14737H21.3691V8.10338L22.2209 8.01538Z" fill="#573448"/>
<path d="M5.7168 14.3948L5.82327 14.5268L6.08945 15.2307L6.56858 16.1107L7.10095 16.8146L7.58007 17.2986L7.68655 17.3426V17.4306H8.0592L8.48509 17.6066L8.53833 17.4746L8.6448 17.7386L8.37862 17.6946L8.00597 17.6066L7.79302 17.6506L7.42036 17.3426V17.2546H7.31389L6.94124 16.7706L6.56858 16.3307L6.19593 15.7147L6.03622 15.4067V15.2747H5.92974L5.82327 15.0987L5.7168 14.6148V14.3948Z" fill="#5C2E5A"/>
<path d="M14.1276 24.0305H14.3934V26.6704H14.3402L14.2871 24.9105L14.2339 24.8225H14.0744L13.9681 24.6905V24.5585L13.8086 24.6025L13.8618 24.3825L14.1276 24.0305Z" fill="#D6A172"/>
<path d="M25.4679 16.9031L25.7341 16.9471L25.8938 17.0791L25.8406 17.2991L25.6809 17.431L25.5744 17.651L24.9355 18.135V18.003L25.255 17.739L25.2017 17.431L25.0953 17.3431L25.255 17.0791L25.4679 16.9031Z" fill="#79417E"/>
<path d="M6.99414 15.4509L8.48476 15.4949V15.5389L12.1048 15.5829V15.6269L10.9336 15.6709L10.7207 15.7589L10.6675 15.6709H8.538L7.20709 15.7149L7.15385 15.8909L7.10061 15.5829L6.99414 15.5389V15.4509Z" fill="#7E565F"/>
<path d="M12.266 25.9663L12.3192 26.1423L11.9466 27.1542L11.5739 28.4742L11.361 29.4861L11.2013 29.7501L11.148 29.8821L10.8819 30.0141L10.7754 29.9701L11.0948 29.6621L11.2545 29.2221L11.5739 27.9022L11.9998 26.5823L12.266 25.9663Z" fill="#543245"/>
<path d="M23.8703 16.4189L24.4559 16.4629L25.7336 16.6389L25.4674 16.8589L24.8818 16.7709L23.9768 16.6829L23.9236 16.5949L23.0186 16.5069V16.4629H23.8703V16.4189Z" fill="#805960"/>
<path d="M25.8402 30.938L25.8935 31.026L25.5208 31.378L24.9352 31.8179L24.6158 31.9939L24.4028 31.9499L24.3496 31.7739L24.882 31.466L25.3611 31.202L25.8402 30.938Z" fill="#A5739E"/>
<path d="M10.3494 10.9192H10.6689V10.9632L9.97678 11.0952L9.65736 11.2712L9.39118 11.5352L9.28471 11.7991V12.2391L9.49766 12.7671L9.87031 13.1631L10.3494 13.427L10.7753 13.559H11.5739L11.4142 13.647H10.6689L10.1365 13.471L9.65736 13.1631L9.33795 12.8111L9.125 12.1511L9.17824 11.7111L9.44442 11.2712L9.92355 11.0072L10.3494 10.9192Z" fill="#4F2D43"/>
<path d="M22.5401 31.906H23.0193L23.0725 31.95L23.0193 32.346L22.7531 32.478L22.3804 32.434L22.2207 32.346V32.126L22.5401 31.906Z" fill="#D6A172"/>
<path d="M10.4551 19.5864L10.668 19.6304V19.7184L10.881 19.7624L11.6263 20.1584L12.4781 20.5104L13.2766 20.7744L14.2881 21.0823V21.1263L13.8622 21.0823L13.4896 20.9943L12.4781 20.6864V20.5984L12.2119 20.5104L11.3601 20.1584L10.9342 19.9384L10.7745 19.8944V19.8064L10.5083 19.7184L10.4551 19.5864Z" fill="#956192"/>
<path d="M20.73 20.1145H20.943V20.2465L19.5588 20.6865L19.1329 20.8185H18.707L18.92 20.6865L20.0379 20.2905L20.73 20.1145Z" fill="#DDC9DB"/>
<path d="M8.48596 15.4509H12.7449V15.4946L10.5622 15.5384V15.5821H8.00684V15.5384H8.48596V15.4509Z" fill="#653F52"/>
<path d="M23.8715 28.2542L23.9247 28.4301L23.8715 28.7821L23.4989 29.6181L23.1262 30.41L22.9665 30.806L22.4874 30.894L22.2744 30.85L22.86 30.718L23.3924 29.3981L23.8715 28.2542Z" fill="#502E43"/>
<path d="M6.19604 10.3472H6.30251L6.24927 10.7431H6.08956L5.92985 11.1391L5.66367 11.6671L5.45073 11.9751L5.39749 11.8431L5.29102 11.8871L5.45073 11.4471L6.03633 10.5232L6.19604 10.3472Z" fill="#B687B9"/>
<path d="M21.209 16.1106L21.9543 16.1546L23.8176 16.3746L23.924 16.5066L22.9126 16.4626L22.7528 16.4186L21.4219 16.2866L21.209 16.1986V16.1106Z" fill="#47263D"/>
<path d="M18.9733 19.2788H19.3459L19.3992 19.5868L19.2395 19.8068L18.7603 19.8948H18.6006L18.4941 19.6748L18.6539 19.5868H18.8136L18.8668 19.4108L18.9733 19.2788Z" fill="#EFE4F1"/>
<path d="M10.1348 13.603L10.6139 13.735V13.823L10.8801 13.911L11.2527 13.955L11.6254 13.867H11.8383L11.7851 14.087L11.5722 14.263L11.4657 14.307H11.093L10.9333 14.219V14.043L10.3477 13.779L10.1348 13.603Z" fill="#FDD6AB"/>
<path d="M10.4551 15.7148H10.5614L10.6146 15.8908V17.2988L10.7741 18.3107L10.9867 19.1906L10.8804 19.2346L10.5614 19.0586H10.7209L10.8272 19.1026L10.5614 17.9587L10.4551 17.1228V15.7148Z" fill="#EFE4F1"/>
<path d="M27.0117 9.11548L27.2247 9.15948L27.7038 9.51146L28.0764 9.95143L28.4491 10.5674L28.5556 10.8314V11.1394L28.3959 11.0954L28.1829 10.4354L27.8635 9.95143L27.4908 9.55545L27.0117 9.15948V9.11548Z" fill="#543146"/>
<path d="M7.36816 27.198L7.63435 27.286L8.007 27.682L8.16671 27.946L8.27318 27.99L8.16671 28.1659L8.06024 28.2539H7.90053V27.99H7.79406V27.902H7.68758L7.36816 27.33V27.198Z" fill="#D6A172"/>
<path d="M21.2628 12.1069H21.7952L22.1146 12.3269L22.1679 12.4149V12.6789H22.1146L22.0081 12.4149L21.6887 12.2829H21.3693L21.2096 12.3709L21.0499 12.6789L20.7837 12.7229L20.7305 12.6789V12.3709L21.1031 12.1509L21.2628 12.1069Z" fill="#F2EBF1"/>
<path d="M20.0371 33.4897H20.4098L20.5695 33.6217L20.7824 34.1057L21.1551 34.5897L21.5277 34.8537L22.0601 35.0737L22.5392 35.2056V35.2936H22.2198L21.6874 35.1177L21.2083 34.8097L20.8889 34.5017L20.5162 33.8857L20.4098 33.5777L20.0371 33.5337V33.4897Z" fill="#533144"/>
<path d="M14.7681 31.4224H14.8214L14.7681 31.9063L14.6084 32.5663H15.2473L15.7796 32.6543L17.217 32.7423V32.7863H16.3652L15.5134 32.7423L15.3537 32.6983L14.6084 32.6543L14.502 32.6103V32.2583L14.6617 31.6424L14.7681 31.4224Z" fill="#6A4458"/>
<path d="M7.79403 27.374H7.95374L8.37963 27.946L8.27316 28.166L8.16668 28.254L8.21992 28.342L7.84726 28.386L7.47461 27.814V27.55L7.58108 27.594L7.68756 27.77V27.902H7.79403V27.99H7.9005V28.254L8.16668 28.122L8.27316 27.99L8.06021 27.902L7.84726 27.55L7.79403 27.374Z" fill="#825470"/>
<path d="M14.4472 23.5464H14.5004L14.4472 26.7142H14.394L14.3409 24.0744L14.1282 24.0304L14.0219 24.2063L13.9688 24.1184L14.0751 23.8104L14.3409 23.7224L14.4472 23.5464Z" fill="#684352"/>
<path d="M9.39062 8.76343L9.71004 8.80743L9.60357 8.89542L8.96473 9.1594L8.4856 9.42339L8.21942 9.55538L7.63382 10.0394L7.52734 9.99536L7.58058 9.90736H7.68705L7.79353 9.73137L8.27265 9.33539L9.28415 8.80743L9.39062 8.76343Z" fill="#42223A"/>
<path d="M30.9512 9.24707L31.1641 9.33507L31.6432 9.68704V9.81904L31.8562 9.90703L31.9627 10.039V10.171L32.1224 10.215L32.4418 10.567V10.743L32.6015 10.787L32.8677 11.139L32.8144 11.227L32.5483 11.007L32.0159 10.347L31.5368 9.81904L30.9512 9.29107V9.24707Z" fill="#9C6997"/>
<path d="M19.4512 30.3662L19.9835 30.4102L20.4627 30.4982L20.5159 30.6302L21.0483 30.6742L21.9 30.8502L22.2727 30.8942V30.9382H21.8468L20.303 30.6742L19.6641 30.5862L19.4512 30.4542V30.3662Z" fill="#4B2A3F"/>
<path d="M6.14261 25.4827L6.40879 25.7027L6.99439 26.2306L6.94115 26.3186L6.67497 26.1866V26.4066L6.88792 26.7586L6.83468 26.8466L6.30232 26.0106L6.03613 25.6587V25.5267L6.14261 25.4827Z" fill="#6C3866"/>
<path d="M7.68691 9.0271L7.79338 9.0711L7.15455 9.59907L6.67542 10.127L6.30276 10.655L6.19629 10.479L6.30276 10.435L6.24953 10.259L6.62218 9.86305L6.83513 9.64306L7.31426 9.33508L7.68691 9.0271Z" fill="#A4729A"/>
<path d="M9.33691 18.9705L9.54986 19.0585L10.1887 19.4984L10.7743 19.8064V19.8944L11.0405 19.9384L11.5196 20.2024L12.2649 20.5104L12.1052 20.5544L10.8808 20.0264L9.92252 19.4984L9.65633 19.2784L9.39015 19.1025L9.33691 18.9705Z" fill="#6A3669"/>
<path d="M11.52 6.47559V6.60758L11.4135 6.78357L11.1473 6.82757V6.91556L10.8279 7.04755L10.4552 7.31154L10.1891 7.48753L9.92288 7.61952H9.81641L9.92288 7.39953L10.8811 6.82757L11.52 6.47559Z" fill="#B07FB3"/>
<path d="M21.9539 7.4873H23.0186L24.5625 7.5753L24.7754 7.6193V7.70729L24.1366 7.66329L23.6042 7.6193H21.8474L21.1021 7.70729H20.8359L21.0489 7.6193L21.9539 7.4873Z" fill="#492544"/>
<path d="M8.53886 15.627H10.5619V15.7144L8.5921 15.7581H7.4209V15.6707L8.53886 15.627Z" fill="#D6A172"/>
<path d="M6.40949 11.887H6.46265V12.3269L6.40949 12.7229V13.9988H6.30316L6.25 13.9108V12.5029L6.35632 11.931L6.40949 11.887Z" fill="#49283E"/>
<path d="M2.20377 21.1707H3.00231V21.2147L2.62966 21.2586L2.8426 21.5226V21.8746L2.73613 21.9626L2.68289 21.8746L2.57642 21.9186V21.5226L2.46995 21.3466H1.93758L1.77787 21.3906L1.72464 21.5226L1.61816 21.3466L2.20377 21.1707Z" fill="#84576F"/>
<path d="M19.0801 16.1106H20.411L20.7304 16.1986L21.2628 16.2866L21.7951 16.3306V16.4186L21.1031 16.3746L20.7836 16.3306V16.4186L20.6239 16.4626L20.6772 16.2866L19.506 16.1986L19.0801 16.1546V16.1106Z" fill="#926668"/>
<path d="M19.6113 20.3789L19.771 20.4229L18.8128 20.7749L18.9192 20.8629L18.3336 20.9949H17.748L17.961 20.8629L19.3451 20.4669L19.6113 20.3789Z" fill="#B282B4"/>
<path d="M10.402 11.491L10.8811 11.579L10.6682 11.667L10.402 11.9309H9.92285L9.97609 11.667L10.189 11.535L10.402 11.491Z" fill="#AE7D8C"/>
<path d="M10.5615 16.1106H10.6147L10.6678 17.2105L10.8805 18.4865L11.0931 19.1464L11.04 19.3224L10.8273 19.2344L10.9337 19.1904L10.721 18.3105L10.5615 17.2985V16.1106Z" fill="#B687B7"/>
<path d="M7.31448 15.6709H7.42095L7.36772 15.9349L7.68714 16.4189L8.43245 17.2548L8.8051 17.6068L8.64539 17.6508L8.2195 17.2108V17.1228H8.11303V16.9908L7.95332 16.9468V16.8148H7.84685L7.42095 16.2429L7.20801 15.9349V15.7149L7.31448 15.6709Z" fill="#AF7E8E"/>
<path d="M25.5741 31.29L25.6806 31.334L25.2014 31.73L24.7756 32.038L24.5094 32.126L24.19 31.95L24.1367 31.818L24.5626 31.554L24.7756 31.51L24.5626 31.686L24.4029 31.774L24.4561 31.95L24.7223 31.906L25.5209 31.334L25.5741 31.29Z" fill="#764A62"/>
<path d="M12.5323 8.5874L13.0646 8.85139L14.0229 9.64334L14.4488 10.0833L14.3955 10.1713L13.9696 9.77533L13.597 9.42335L13.1179 9.07137L12.4258 8.6754L12.5323 8.5874Z" fill="#512E45"/>
<path d="M15.1934 15.8025H16.2049L16.471 15.8465V15.8905L15.5128 15.8465V15.9785L15.4063 16.0225L15.2466 16.9464H15.1934V15.8025Z" fill="#794B62"/>
<path d="M26.0528 16.551L26.1061 16.639L26.2658 16.595V16.683L26.3723 16.727L26.1593 17.035L25.9996 17.167L25.8931 17.387L25.627 17.563L25.6802 17.387L25.8399 17.211L25.9464 16.771V16.595L26.0528 16.551Z" fill="#6F3871"/>
<path d="M12.8516 8.14771L13.0113 8.1917V8.2797L13.2775 8.32369L13.5436 8.54368L13.9695 8.85166L14.5551 9.33564L14.8213 9.59962L14.7681 9.68761L14.1292 9.15965L13.8098 8.85166L13.7033 8.80767V8.71967L13.4904 8.63168L12.958 8.32369L12.8516 8.14771Z" fill="#43213D"/>
<path d="M6.99414 26.626L7.20679 26.714L7.68525 27.2419L7.63209 27.3299L7.36628 27.1979L7.41944 27.4619L7.25995 27.2859L6.99414 26.846V26.626Z" fill="#95628E"/>
<path d="M10.2958 7.83936H11.7864V7.88335L10.6684 7.92735L9.65692 8.14734L9.07132 8.36732L8.96484 8.32333L9.39074 8.10334L10.2958 7.83936Z" fill="#976494"/>
<path d="M10.3494 10.9192H10.6689V10.9632L9.97678 11.0952L9.65736 11.2712L9.39118 11.5352L9.28471 11.7991V12.2391L9.33795 12.5471H9.23147L9.125 12.1511L9.17824 11.7111L9.44442 11.2712L9.92355 11.0072L10.3494 10.9192Z" fill="#533145"/>
<path d="M8.32555 9.4231L8.43203 9.46709L7.58024 10.1711L7.26083 10.567L7.10112 10.699L7.04788 10.787H6.94141L7.04788 10.523L7.42053 10.1271L8.05937 9.64308L8.32555 9.4231Z" fill="#603C4D"/>
<path d="M14.5547 21.1267L16.8971 21.1704V21.2141L16.418 21.2579H14.8741L14.5547 21.2141V21.1267Z" fill="#834F83"/>
<path d="M9.60257 18.7944L10.0817 19.0144L10.3479 19.2344L10.4011 19.3224L10.0817 19.3664L9.6558 19.0584L9.49609 18.9704L9.60257 18.7944Z" fill="#AA78A2"/>
<path d="M28.875 7.4873L29.0879 7.5753L29.8865 8.23526L30.2591 8.58724L30.5786 8.80723L30.9512 9.15921L30.898 9.2472L29.8333 8.36725L29.4606 8.01527L28.875 7.5313V7.4873Z" fill="#95628F"/>
<path d="M23.8711 26.6704L24.3502 26.8024L25.1488 27.1544L25.415 27.4184H25.2552L24.8294 27.1544L24.0308 26.8024L23.9776 26.9784L23.8711 26.8904V26.6704Z" fill="#573448"/>
<path d="M9.17756 28.6062H9.28388L9.23072 28.8702L9.01807 29.2222V29.4422V29.5741L8.6991 29.1782L8.59277 29.0022L8.64594 28.8702L8.75226 29.0462L9.01807 29.0902L9.07123 28.8702V28.7382L9.17756 28.6062Z" fill="#693961"/>
<path d="M33.3472 15.6709H33.4003L33.3472 16.0669L33.1877 16.4629L32.975 16.7708L32.9219 16.6388L33.0814 16.1109L33.294 15.7149L33.3472 15.6709Z" fill="#6F3C69"/>
<path d="M12.4775 20.6426H12.8502L14.0214 20.9946L14.2876 21.0826V21.1265L13.8617 21.0826L13.489 20.9946L12.4775 20.6866V20.6426Z" fill="#7F4B7E"/>
<path d="M23.3924 29.6182L23.4456 29.7062L23.1262 30.4101L22.9665 30.8061L22.4874 30.8941L22.2744 30.8501L22.86 30.7181L23.2859 29.6622L23.3924 29.6182Z" fill="#533145"/>
<path d="M33.6129 13.6467H33.7192V14.7467L33.5066 15.4946L33.3471 15.7146L33.2939 15.6266L33.4534 15.0546H33.5598L33.6129 14.6147V13.6467Z" fill="#693663"/>
<path d="M23.977 26.978L24.1365 27.154L24.296 27.374L24.2428 27.594L23.977 28.254H23.9238L23.977 27.506L24.0302 27.462V27.198L23.977 26.978Z" fill="#7F575F"/>
<path d="M23.6045 16.6389L24.2966 16.6829L25.1484 16.7709L25.521 16.8589L25.3613 17.0789L25.1484 17.2109L25.0419 17.1669L25.3081 16.9469L24.8289 16.8589L23.6045 16.6829V16.6389Z" fill="#B38094"/>
<path d="M15.9375 36.9214L16.2037 37.0094L16.6828 37.3614L16.7893 37.4054V37.7573L16.5231 37.5374L16.1504 37.1854L15.9375 36.9214Z" fill="#050203"/>
<path d="M20.7302 20.1145H20.9431V20.2465L20.3043 20.4665H19.9316L20.1978 20.2465L20.7302 20.1145Z" fill="#E4D3E3"/>
<path d="M24.8291 4.1438L25.042 4.23179L25.3615 4.45178L25.7341 4.80376L26.2665 5.28773L26.3197 5.41972H26.2133L25.8406 5.06774L25.5744 4.84776V4.75976H25.4679V4.67177L25.3082 4.62777L24.9356 4.27579L24.8291 4.1438Z" fill="#9D699F"/>
<path d="M16.9504 31.4661L17.0036 31.6421L16.6846 32.038L16.472 32.434L16.4188 32.654H16.3125L16.3657 32.302L16.7378 31.6861L16.9504 31.4661Z" fill="#F7F2FC"/>
<path d="M21.2622 12.1069H21.7946L22.114 12.3269L22.1673 12.4149V12.6789H22.114L22.0076 12.4149L21.6881 12.2829H21.2622L21.1025 12.1509L21.2622 12.1069Z" fill="#CAA19D"/>
<path d="M17.2175 10.0835H17.324L17.2708 10.3035L17.0046 10.3915L16.9513 10.5235L16.5787 10.7435L16.3125 10.9634V10.8315L17.2175 10.0835Z" fill="#EEC398"/>
<path d="M9.39082 8.76343L9.71024 8.80743L9.60376 8.89542L8.96493 9.1594L8.75198 9.2914L8.64551 9.2474L8.91169 8.98341L9.39082 8.76343Z" fill="#573447"/>
<path d="M10.7747 27.5063L10.881 27.5503L10.9874 28.0343L10.9342 28.2103H10.8279L10.7216 28.0343H10.8279L10.7747 27.8143H10.6684L10.6152 27.5503L10.7747 27.5063Z" fill="#F9C68F"/>
<path d="M23.8703 16.4189L24.4559 16.4629V16.5509L24.6689 16.5949L24.5624 16.6389L24.3495 16.5949H23.9236L23.0186 16.5069V16.4629H23.8703V16.4189Z" fill="#6D3B63"/>
<path d="M12.3721 7.75171L12.7448 7.79571L12.9045 7.8837V7.9717H13.0109V8.10369L12.5318 8.01569V7.9277L12.3189 7.8837L12.2656 7.79571L12.3721 7.75171Z" fill="#FAF9FC"/>
<path d="M33.0273 11.6672L33.24 11.8872L33.5058 12.5912L33.4526 12.7672L33.2932 12.5472L33.1868 12.1072L33.0273 11.8432V11.6672Z" fill="#753C79"/>
<path d="M19.4512 30.3662L19.9835 30.4102L20.2497 30.4542L20.303 30.6302L19.6641 30.5862L19.4512 30.4542V30.3662Z" fill="#41223A"/>
<path d="M8.64539 18.0464L8.85803 18.0904L9.01752 18.2224L8.80487 18.2664L8.9112 18.5304L9.23017 18.7943L9.17701 18.8823L8.80487 18.5744L8.53906 18.2664L8.59222 18.0904L8.64539 18.0464Z" fill="#7C4382"/>
<path d="M5.50488 13.7791H5.55804L5.61121 14.131H5.71753L5.77069 14.615L5.82386 14.835L5.61121 14.659L5.50488 14.219V13.7791Z" fill="#6E376F"/>
<path d="M12.5844 7.70728L12.9565 7.75127L13.2224 8.05925V8.19125L12.7439 8.14725L12.6376 8.05925L13.0097 8.10325V7.97126H12.9034V7.88327L12.5312 7.79527L12.5844 7.70728Z" fill="#F2E8F3"/>
<path d="M8.59213 15.7148H9.76333V15.7588L7.47416 15.8468L7.36769 16.0228L7.31445 15.8028L7.36769 15.7588L8.59213 15.7148Z" fill="#EFE3EF"/>
<path d="M33.6129 15.1868H33.6661V15.5827L33.3471 16.1987L33.2939 16.0667L33.5066 15.3628L33.6129 15.1868Z" fill="#996690"/>
<path d="M13.8098 5.19946H13.9163V5.28746L13.5969 5.37545V5.46345H13.4904V5.55144H13.3839V5.63944L13.0645 5.81543L12.8516 5.85942L12.9048 5.68343L13.8098 5.19946Z" fill="#AD7BA4"/>
<path d="M20.4639 16.155H21.2092L21.4221 16.243L22.1674 16.331L22.2207 16.419H21.7948V16.331H21.2624L20.4639 16.199V16.155Z" fill="#703F64"/>
<path d="M14.9802 10.9192L15.1397 10.9632L15.246 11.2272L15.0866 11.3592L14.8739 11.2712L14.7676 11.0952L14.9802 10.9192Z" fill="#F5C38E"/>
<path d="M28.2363 10.3472H28.3427L28.5553 10.8311V11.1391L28.3958 11.0951L28.2363 10.5672V10.3472Z" fill="#523045"/>
<path d="M5.23828 15.4509L5.45093 15.6709H5.55725L5.61042 16.0229H5.50409L5.45093 16.1989L5.23828 15.7149V15.4509Z" fill="#7E4681"/>
<path d="M12.2121 13.1194H12.2653L12.3186 13.4714L12.1588 13.6034L12.1056 13.5154L11.6797 13.6914L11.5732 13.6474L11.8927 13.4714L12.2121 13.1194Z" fill="#F0BE8A"/>
<path d="M9.28467 27.4624L9.49732 27.5944L9.44416 27.7704L8.9657 28.0344L8.85938 27.9904L9.07202 27.7264H9.17835L9.28467 27.4624Z" fill="#57344D"/>
<path d="M20.3037 16.2429L20.6758 16.2869L20.729 16.5509L20.6227 16.8589H20.5164L20.41 16.3749L20.4632 16.2869L20.3037 16.2429Z" fill="#A06D9A"/>
<path d="M6.08936 10.7432H6.19568L6.0362 11.1391L5.77039 11.7551L5.66406 11.6671L5.71722 11.4911L6.0362 10.8312L6.08936 10.7432Z" fill="#A2709B"/>
<path d="M10.1888 11.5789H10.5078L10.4546 11.7548L10.2951 11.8868L10.0293 11.8428L10.0825 11.6669L10.1888 11.5789Z" fill="#F8F4F9"/>
<path d="M22.1674 32.082L22.2737 32.126L22.2206 32.346L22.7522 32.478L22.5396 32.566H22.2206L22.1143 32.478V32.126L22.1674 32.082Z" fill="#82566D"/>
<path d="M11.3602 29.1782L11.4133 29.3102L11.2538 29.7062L11.1475 29.8822L10.8817 30.0142L10.7754 29.9702L11.0944 29.6622L11.2538 29.2222L11.3602 29.1782Z" fill="#583449"/>
<path d="M7.68767 8.89502L7.79414 8.93902L7.31501 9.37899L7.1553 9.51098H7.04883L7.1553 9.33499L7.68767 8.89502Z" fill="#B3819C"/>
<path d="M22.2198 16.375H22.7522L22.9119 16.4187V16.5062H22.2198L21.9004 16.4624V16.4187L22.2198 16.375Z" fill="#8C5E6C"/>
<path d="M12.8516 8.14771L13.0113 8.1917V8.2797L13.2775 8.32369L13.5436 8.54368L13.8098 8.71967V8.80767H13.7033V8.71967L13.4904 8.63168L12.958 8.32369L12.8516 8.14771Z" fill="#5A354F"/>
<path d="M27.4375 6.25513L27.6501 6.29912L27.7565 6.34312L27.916 6.56311L28.1286 6.82709V6.95909L27.4907 6.38712L27.4375 6.25513Z" fill="#A16EA0"/>
<path d="M12.7453 5.77148L12.7985 5.94747L12.2662 6.16746L12 6.25546V6.16746L12.7453 5.77148Z" fill="#AE7CA3"/>
<path d="M25.8402 30.938L25.8934 31.026L25.5212 31.378L25.3618 31.466L25.4149 31.29L25.3086 31.246L25.8402 30.938Z" fill="#95628E"/>
<path d="M10.4551 19.5864L10.668 19.6304V19.7184L10.881 19.7624L11.4133 20.0264L11.2004 20.0704L10.7745 19.8944V19.8064L10.5083 19.7184L10.4551 19.5864Z" fill="#976494"/>
<path d="M6.30316 12.855H6.35632L6.40949 13.9989H6.30316L6.25 13.9109L6.30316 12.855Z" fill="#674251"/>
<path d="M7.47461 27.55L7.58093 27.594L7.68726 27.77V27.902H7.79358V27.99H7.89991V28.254L7.79358 28.078L7.58093 27.99L7.47461 27.814V27.55Z" fill="#895A79"/>
<path d="M24.6162 26.978L24.8824 27.022L25.3083 27.286L25.4148 27.462L25.2018 27.374L24.7227 27.11L24.6162 27.066V26.978Z" fill="#543145"/>
<path d="M13.8608 24.2065H13.9672L13.8077 24.6025L13.4887 25.2185L13.4355 25.0865L13.8077 24.2505L13.8608 24.2065Z" fill="#523044"/>
<path d="M10.7754 18.3108L10.8817 18.4868L11.0944 19.1467L11.0412 19.3227L10.8286 19.2347L10.9349 19.1907L10.7754 18.5748V18.3108Z" fill="#B586BB"/>
<path d="M6.6228 11.3589H6.67597L6.6228 11.7549L6.51648 12.1068H6.46332L6.41016 11.7549L6.6228 11.3589Z" fill="#563446"/>
<path d="M26.0527 44.0493L26.4249 44.3133L26.6907 44.5773L26.5312 44.6213L26.3185 44.4013L26.0527 44.1813V44.0493Z" fill="#FED8AE"/>
<path d="M14.7673 31.4224H14.8205L14.7673 31.9063L14.7142 32.1703H14.6078L14.5547 32.2583L14.6078 31.9063L14.7142 31.5984L14.7673 31.4224Z" fill="#6F485C"/>
<path d="M23.8703 28.2542L23.9235 28.4301L23.8703 28.7821L23.8171 28.9141L23.6045 29.0461L23.7108 28.6501L23.8703 28.2542Z" fill="#613D4E"/>
<path d="M7.63477 27.9897L7.84741 28.0777V28.2537L8.11322 28.1657L8.27271 28.0777L8.16639 28.2537L8.21955 28.3417L7.84741 28.3857L7.63477 28.0777V27.9897Z" fill="#7E5268"/>
<path d="M10.1348 13.603L10.6139 13.735V13.823L10.8801 13.911L11.1995 13.955L10.9865 14.043L10.6139 13.911L10.1348 13.647V13.603Z" fill="#FAC790"/>
<path d="M11.5188 6.47559V6.60758L11.4125 6.78357L10.8809 6.91556V6.82757L11.5188 6.47559Z" fill="#B180AB"/>
<path d="M20.9434 16.2429L21.7952 16.3309V16.4189L21.1031 16.3749L20.7837 16.3309L20.7305 16.4189V16.2869L20.9434 16.2429Z" fill="#9A6C79"/>
<path d="M8.91228 8.41138L9.01875 8.45537L8.85904 8.58737L8.37991 8.85135L8.27344 8.80735L8.53962 8.58737L8.91228 8.41138Z" fill="#482442"/>
<path d="M26.3184 5.41943L26.5313 5.50743L26.7975 5.72742L27.0637 5.85941L27.2234 6.07939L27.0104 5.9914L26.3184 5.46343V5.41943Z" fill="#9E6AA1"/>
<path d="M20.251 30.4983L20.5172 30.5423V30.6303L21.0496 30.6743V30.7183H20.5704L20.3042 30.6743V30.5863L20.1445 30.5423L20.251 30.4983Z" fill="#694258"/>
<path d="M6.41016 17.519L6.56964 17.563L6.94178 18.003L6.88861 18.135L6.41016 17.607V17.519Z" fill="#582E54"/>
<path d="M5.7168 14.3948L5.82312 14.5268L5.98261 15.0107V15.2747L5.82312 15.0987L5.7168 14.6148V14.3948Z" fill="#61315D"/>
<path d="M21.6881 13.251H21.7944L21.6881 13.427L21.5818 13.515H21.3691V13.295L21.6881 13.251Z" fill="#D0AFAF"/>
<path d="M24.4559 31.686L24.5623 31.73L24.5091 31.862L24.7217 31.818L24.9344 31.686L25.0407 31.73L24.6154 31.994L24.4028 31.95L24.3496 31.774L24.4559 31.686Z" fill="#95628E"/>
<path d="M22.4327 31.7737L22.5922 31.8177L22.3264 31.9937L22.1669 32.1257L22.1137 32.3896H22.0605V32.0817L22.3264 31.8177L22.4327 31.7737Z" fill="#764862"/>
<path d="M25.3086 27.3301L25.5212 27.4181L25.9997 27.7701L25.8402 27.814L25.4149 27.5061L25.3086 27.3301Z" fill="#5E3A4B"/>
<path d="M21.6885 12.1069L21.9543 12.1949L22.1669 12.4149V12.6789H22.1138L22.0074 12.4149L21.6885 12.2829V12.1509V12.1069Z" fill="#AA7A80"/>
<path d="M25.5744 31.29L25.6809 31.334L25.2017 31.73L24.9355 31.862L25.042 31.686L25.5744 31.29Z" fill="#744662"/>
<path d="M7.31433 15.6709H7.42066L7.36749 15.9349L7.52698 16.1989L7.47382 16.2869L7.20801 15.9349V15.7149L7.31433 15.6709Z" fill="#B58293"/>
<path d="M11.0404 6.82715H11.1467V6.91514L10.8278 7.04714L10.6151 7.22313L10.5088 7.17913L10.7214 6.91514L11.0404 6.82715Z" fill="#B384B4"/>
<path d="M20.0371 33.4897H20.4092L20.5687 33.6217L20.6219 34.0177L20.5156 33.8857L20.4092 33.5777L20.0371 33.5337V33.4897Z" fill="#583549"/>
<path d="M17.4822 30.4099L17.8543 30.4539V30.5419L17.748 30.5859H17.2695V30.4979L17.4822 30.4099Z" fill="#D3B3B8"/>
<path d="M11.3598 19.6309L11.6256 19.6749L11.7319 19.8948L11.4661 19.8508L11.3066 19.7629L11.3598 19.6309Z" fill="#9F6B9F"/>
<path d="M9.97656 19.0588L10.3487 19.2348L10.4019 19.3228L10.0829 19.3668L9.97656 19.2348V19.0588Z" fill="#9D699F"/>
<path d="M11.0405 12.855H11.3063V13.031L11.0405 13.075L10.9873 12.899L11.0405 12.855Z" fill="#B48692"/>
<path d="M33.0273 11.6672L33.24 11.8872L33.3463 12.1072V12.2392L33.1868 12.1952L33.0805 11.8872L33.0273 11.6672Z" fill="#763D7B"/>
<path d="M17.6417 9.77515L17.748 9.81914L17.3759 10.2151L17.2695 10.0391L17.6417 9.77515Z" fill="#E0AF82"/>
<path d="M17.6412 30.8943L17.7476 30.9823L17.6412 31.1143L17.3223 31.1583L17.4286 30.9383L17.6412 30.8943Z" fill="#FDFDFE"/>
<path d="M14.394 23.1504L14.5004 23.1944L14.2346 23.5904L13.9688 23.7224L14.0751 23.5464L14.394 23.1504Z" fill="#1E111A"/>
<path d="M9.33691 18.9705L9.54956 19.0585L10.028 19.4104H9.86853L9.39008 19.1025L9.33691 18.9705Z" fill="#743C75"/>
<path d="M20.4099 16.4189H20.4631L20.4099 16.7269L20.3036 17.0349H20.1973L20.3568 16.4629L20.4099 16.4189Z" fill="#AC79B0"/>
<path d="M26.3184 8.67505L26.9031 8.93903L27.0095 9.11502L26.7968 9.02703L26.3184 8.76304V8.67505Z" fill="#543246"/>
<path d="M26.0533 30.762H26.1597V30.894H26.0533L25.947 31.0699L25.8407 31.1139V30.9819L25.7344 30.938L26.0533 30.762Z" fill="#80595F"/>
</svg>
