<svg width="1440" height="661" viewBox="0 0 1440 661" fill="none" xmlns="http://www.w3.org/2000/svg">
<path d="M-16.4629 660.302L99.5548 369.109L242.34 660.302H-16.4629Z" fill="#259E51"/>
<path d="M152.533 660.302L274.332 317L411.336 660.302H152.533Z" fill="#4AA5A2"/>
<path d="M189.835 334.343L126.877 459.627H158.395L59.4834 660.302H309.021L241.548 497.322L284.233 510.389L189.835 334.343Z" fill="#9EC865"/>
<path d="M33.3517 334.343L-29.6068 459.627H1.91209L-97 660.302H152.537L85.0647 497.322L127.829 510.389L33.3517 334.343Z" fill="#00772C"/>
<path d="M460.914 390.808L408.884 494.393H434.86L353.132 660.302H559.43L503.678 525.595L538.919 536.365L460.914 390.808Z" fill="#4AA5A2"/>
<path d="M350.126 390.808L298.096 494.393H324.151L242.344 660.302H448.642L392.89 525.595L428.21 536.365L350.126 390.808Z" fill="#4AA5A2"/>
<path d="M1017.54 660.302L1133.55 369.109L1276.34 660.302H1017.54Z" fill="#4AA5A2"/>
<path d="M1186.53 660.302L1308.33 317L1445.34 660.302H1186.53Z" fill="#259E51"/>
<path d="M1223.84 334.343L1160.88 459.627H1192.4L1093.48 660.302H1343.02L1275.55 497.322L1318.23 510.389L1223.84 334.343Z" fill="#9EC865"/>
<path d="M1067.35 334.343L1004.39 459.627H1035.91L937 660.302H1186.54L1119.06 497.322L1161.83 510.389L1067.35 334.343Z" fill="#4AA5A2"/>
<path d="M1494.91 390.808L1442.88 494.393H1468.86L1387.13 660.302H1593.43L1537.68 525.595L1572.92 536.365L1494.91 390.808Z" fill="#4AA5A2"/>
<path d="M1384.13 390.808L1332.1 494.393H1358.15L1276.34 660.302H1482.64L1426.89 525.595L1462.21 536.365L1384.13 390.808Z" fill="#00772C"/>
<path d="M237.758 659.679L460.694 100.131L735.066 659.679H237.758Z" fill="#9EC865"/>
<path d="M562.497 659.68L796.542 0L1059.81 659.68H562.497Z" fill="#9EC865"/>
<path d="M634.175 33.3262L513.196 274.068H573.762L383.695 659.68H863.199L733.546 346.503L815.568 371.612L634.175 33.3262Z" fill="#4AA568"/>
<g clip-path="url(#clip0_2854_182227)">
<path d="M671.98 660.11L679.8 490.62L624 459.86L640.17 431.18C640.17 431.18 679.8 465.08 681.37 465.08C682.94 465.08 687.63 392.59 687.63 392.59L655.29 352.42L674.06 339.9L711.61 388.92L736.12 330L765.33 349.82L736.12 398.32L748.64 501.06L786.19 474.98L794.01 501.58L750.72 518.27L760.11 658.03L671.98 660.12V660.11Z" fill="#9F513A"/>
</g>
<path d="M1155.07 141.828L1055.09 340.873H1105.01L947.963 659.68H1344.38L1237.25 400.83L1304.97 421.526L1155.07 141.828Z" fill="#4AA568"/>
<path d="M942.186 141.828L842.207 340.873H892.273L735.076 659.68H1131.49L1024.36 400.83L1092.23 421.526L942.186 141.828Z" fill="#259E51"/>
<defs>
<clipPath id="clip0_2854_182227">
<rect width="170.01" height="330.11" fill="white" transform="translate(624 330)"/>
</clipPath>
</defs>
</svg>
